<?xml version="1.0" standalone="no"?>
<!DOCTYPE svg PUBLIC "-//W3C//DTD SVG 20010904//EN"
 "http://www.w3.org/TR/2001/REC-SVG-20010904/DTD/svg10.dtd">
<svg version="1.0" xmlns="http://www.w3.org/2000/svg"
 width="560.000000pt" height="786.000000pt" viewBox="0 0 560.000000 786.000000"
 preserveAspectRatio="xMidYMid meet">

<g transform="translate(0.000000,786.000000) scale(0.100000,-0.100000)"
fill="#000000" stroke="none">
<path d="M1594 7756 c-61 -22 -113 -66 -143 -119 -21 -37 -21 -48 -21 -511 l0
-473 26 -24 26 -24 301 -3 c366 -4 379 -2 407 43 21 34 21 41 18 497 l-3 463
-33 47 c-41 60 -84 91 -145 106 -61 15 -390 14 -433 -2z"/>
<path d="M3605 7757 c-44 -13 -115 -57 -115 -71 0 -6 -10 -20 -22 -34 l-23
-24 -3 -466 c-2 -257 -1 -481 3 -498 10 -57 23 -59 391 -59 l332 0 26 24 26
24 0 461 c0 278 -4 475 -10 497 -13 45 -90 126 -127 134 -16 4 -38 11 -51 16
-33 13 -378 10 -427 -4z"/>
<path d="M580 7118 c-142 -58 -182 -82 -247 -147 -35 -36 -73 -85 -86 -110
-12 -25 -25 -47 -29 -49 -5 -2 -8 -12 -8 -22 0 -10 -4 -22 -10 -25 -5 -3 -10
-24 -10 -45 0 -21 -4 -42 -10 -45 -14 -9 -14 -4321 0 -4330 6 -3 10 -19 10
-35 0 -16 4 -32 10 -35 5 -3 10 -13 10 -20 0 -17 52 -100 99 -160 47 -59 173
-145 212 -145 10 0 20 -4 23 -9 19 -30 153 -32 2316 -28 1191 2 2182 7 2204
12 21 4 65 23 98 41 33 19 62 34 65 34 2 0 25 16 49 37 70 57 164 187 164 228
0 8 4 23 9 33 31 61 31 101 31 2235 0 1186 -4 2148 -9 2151 -5 3 -11 24 -15
45 -12 78 -63 165 -141 240 -40 39 -78 71 -85 71 -7 0 -20 8 -29 18 -9 10 -43
26 -76 36 -33 10 -69 23 -80 28 -11 5 -148 7 -305 6 l-285 -3 -5 -260 c-3
-143 -10 -271 -15 -285 -10 -30 -57 -103 -68 -109 -5 -1 -19 -14 -31 -26 -13
-13 -57 -35 -98 -49 -74 -26 -76 -26 -401 -26 -324 0 -408 7 -454 36 -12 8
-26 14 -31 14 -17 0 -93 82 -117 127 -24 41 -24 49 -27 310 l-3 268 -380 0
-380 0 -5 -260 c-5 -258 -5 -260 -32 -317 -42 -86 -92 -123 -229 -166 -43 -14
-654 -16 -714 -2 -108 25 -97 19 -176 88 -21 19 -52 62 -69 96 l-30 63 0 251
0 252 -292 -1 c-176 0 -303 -4 -318 -11z m4508 -3028 c2 -1298 0 -1644 -10
-1679 -15 -52 -55 -86 -118 -100 -69 -16 -4254 -14 -4300 2 -21 8 -45 28 -65
55 l-30 44 -3 1659 -2 1659 2262 -2 2263 -3 3 -1635z"/>
<path d="M1270 4930 l0 -290 280 0 280 0 0 290 0 290 -280 0 -280 0 0 -290z"/>
<path d="M2965 5207 c-3 -7 -4 -136 -3 -287 l3 -275 283 -3 282 -2 0 290 0
290 -280 0 c-217 0 -282 -3 -285 -13z"/>
<path d="M3815 5207 c-3 -7 -4 -136 -3 -287 l3 -275 283 -3 282 -2 0 290 0
290 -280 0 c-217 0 -282 -3 -285 -13z"/>
<path d="M1270 4020 l0 -290 280 0 280 0 0 290 0 290 -280 0 -280 0 0 -290z"/>
<path d="M2120 4020 l0 -290 280 0 280 0 0 290 0 290 -280 0 -280 0 0 -290z"/>
<path d="M2962 4023 l3 -288 283 -3 282 -2 0 290 0 290 -285 0 -285 0 2 -287z"/>
<path d="M2120 3105 l0 -285 280 0 280 0 0 285 0 285 -280 0 -280 0 0 -285z"/>
<path d="M2962 3108 l3 -283 283 -3 282 -2 0 285 0 285 -285 0 -285 0 2 -282z"/>
<path d="M3812 3108 l3 -283 283 -3 282 -2 0 285 0 285 -285 0 -285 0 2 -282z"/>
<path d="M2225 1786 c-51 -22 -55 -43 -55 -321 l0 -254 -154 -3 c-133 -3 -157
-6 -174 -22 -44 -39 -36 -122 14 -145 15 -6 83 -11 169 -11 l145 0 0 -435 c0
-486 0 -483 65 -505 26 -9 44 -9 70 0 67 22 65 7 65 497 l0 443 166 0 166 0
29 29 c31 31 35 53 19 95 -17 47 -54 56 -225 56 l-155 0 0 255 c0 274 -3 296
-51 321 -34 17 -55 17 -94 0z"/>
<path d="M1125 1745 c-31 -30 -34 -86 -6 -114 30 -30 64 -33 333 -29 221 3
248 5 266 21 43 39 35 113 -14 136 -17 7 -114 11 -290 11 l-265 0 -24 -25z"/>
<path d="M3075 1654 c-33 -35 -33 -84 -1 -121 l24 -28 311 -3 311 -3 0 -69 0
-70 -75 0 c-110 0 -171 -16 -216 -57 -61 -55 -64 -73 -64 -398 0 -281 1 -291
23 -332 52 -98 137 -118 492 -111 219 3 228 4 276 29 34 18 58 39 79 74 l30
48 3 283 c4 309 0 340 -48 392 -51 53 -83 64 -207 70 l-113 5 0 68 0 68 321 3
321 3 24 28 c30 35 31 85 3 121 l-20 26 -725 0 -725 0 -24 -26z m645 -549 l0
-105 -90 0 -90 0 0 78 c0 108 22 131 123 132 l57 0 0 -105z m351 76 c15 -18
19 -40 19 -102 l0 -79 -95 0 -95 0 0 106 0 106 76 -4 c65 -3 79 -7 95 -27z
m-351 -446 l0 -115 -70 0 c-101 0 -110 12 -110 135 l0 95 90 0 90 0 0 -115z
m370 25 c0 -83 -2 -93 -25 -115 -21 -22 -33 -25 -95 -25 l-70 0 0 115 0 115
95 0 95 0 0 -90z"/>
<path d="M1073 1503 c-30 -6 -63 -49 -63 -83 0 -15 9 -39 21 -54 l20 -26 377
0 c409 1 405 0 421 56 12 45 -1 77 -39 96 -31 16 -70 18 -375 17 -187 -1 -350
-4 -362 -6z"/>
<path d="M3088 1245 c-25 -24 -25 -26 -31 -257 -3 -128 -2 -330 1 -449 l7
-216 30 -49 c24 -38 43 -55 90 -79 l60 -30 279 -6 c154 -3 406 -3 560 1 264 6
284 8 333 29 29 13 69 41 89 63 70 78 69 68 72 518 2 372 1 408 -15 440 -30
58 -113 70 -164 24 -18 -16 -19 -40 -20 -398 0 -423 -2 -437 -59 -471 -34 -19
-52 -20 -493 -23 -307 -2 -470 1 -497 8 -29 8 -47 21 -60 43 -19 30 -20 53
-20 425 l0 394 -29 29 c-39 39 -97 40 -133 4z"/>
<path d="M1154 1240 c-28 -11 -54 -48 -54 -77 0 -12 11 -35 24 -50 l24 -28
277 0 277 0 24 28 c39 46 25 108 -29 127 -36 12 -512 13 -543 0z"/>
<path d="M1122 967 c-37 -39 -28 -98 19 -122 36 -19 527 -22 562 -3 50 26 61
77 26 122 l-20 26 -283 0 c-282 0 -283 0 -304 -23z"/>
<path d="M1189 730 c-44 -13 -77 -40 -94 -76 -13 -29 -16 -68 -16 -214 0 -192
5 -212 53 -258 40 -36 81 -42 298 -42 255 1 301 14 336 96 19 44 28 194 19
310 -7 96 -8 99 -44 135 -20 20 -54 42 -76 48 -46 12 -435 14 -476 1z m395
-161 c25 -20 26 -24 26 -123 0 -144 5 -140 -167 -144 -80 -2 -150 1 -165 7
l-28 11 0 115 c0 158 -3 155 174 155 120 0 136 -2 160 -21z"/>
</g>
</svg>
