<?xml version="1.0" standalone="no"?>
<!DOCTYPE svg PUBLIC "-//W3C//DTD SVG 20010904//EN"
 "http://www.w3.org/TR/2001/REC-SVG-20010904/DTD/svg10.dtd">
<svg version="1.0" xmlns="http://www.w3.org/2000/svg"
 width="878.000000pt" height="878.000000pt" viewBox="0 0 878.000000 878.000000"
 preserveAspectRatio="xMidYMid meet">

<g transform="translate(0.000000,878.000000) scale(0.100000,-0.100000)"
fill="#000000" stroke="none">
<path d="M4175 8434 c-100 -8 -242 -25 -335 -39 -202 -31 -225 -35 -240 -41
-8 -4 -44 -13 -80 -21 -36 -7 -85 -18 -110 -23 -142 -32 -481 -147 -645 -220
-11 -5 -45 -19 -75 -31 -153 -63 -395 -199 -599 -337 -278 -188 -433 -314
-636 -517 -91 -91 -122 -124 -230 -250 -224 -260 -455 -620 -579 -905 -16 -36
-44 -97 -62 -137 -44 -96 -94 -231 -144 -388 -22 -71 -45 -143 -50 -158 l-9
-29 227 9 c257 9 413 10 457 3 25 -4 31 -1 37 20 40 132 63 202 80 240 50 114
149 306 218 420 41 69 81 137 88 150 26 50 233 317 325 420 59 66 257 253 312
295 22 17 53 41 70 55 293 245 773 514 1095 615 30 10 82 26 115 37 96 31 193
55 295 72 52 9 115 21 140 26 45 10 149 24 290 40 99 12 547 11 680 0 363 -32
745 -124 1018 -246 29 -13 78 -35 110 -48 80 -34 255 -125 332 -174 36 -22
107 -66 157 -97 204 -124 576 -445 718 -619 113 -139 150 -187 193 -254 26
-40 66 -99 89 -131 119 -168 301 -535 377 -761 l19 -55 329 -2 c181 -1 341 -4
355 -8 25 -6 26 -5 19 37 -4 24 -17 75 -30 113 -13 39 -31 95 -41 125 -63 203
-237 571 -381 805 -126 204 -165 261 -274 400 -63 80 -135 171 -159 203 -60
76 -298 313 -390 387 -237 192 -478 365 -596 430 -11 6 -64 37 -118 69 -246
146 -667 318 -932 381 -38 9 -86 21 -105 26 -19 5 -57 14 -85 20 -27 6 -81 17
-120 25 -67 14 -183 32 -345 55 -75 10 -681 20 -775 13z"/>
<path d="M3805 6492 l-90 -3 -19 -42 c-10 -23 -35 -78 -56 -122 -21 -44 -48
-105 -60 -135 -12 -30 -26 -64 -31 -75 -5 -11 -18 -49 -30 -85 -12 -36 -25
-69 -29 -75 -4 -5 -20 -39 -35 -75 -15 -36 -36 -83 -46 -105 -10 -22 -27 -64
-38 -92 l-21 -53 80 -2 c44 -1 92 -2 108 -2 22 -1 28 4 30 24 2 14 17 53 34
88 l30 62 172 0 c199 0 191 3 243 -105 l28 -60 122 -3 121 -3 -48 93 c-26 51
-58 118 -70 148 -22 54 -36 86 -107 240 -19 41 -42 91 -50 110 -43 98 -135
280 -141 278 -4 -1 -47 -4 -97 -6z m71 -380 c80 -156 85 -142 -50 -142 -122 0
-131 4 -103 45 8 11 22 44 31 74 26 81 50 131 60 128 5 -2 33 -49 62 -105z"/>
<path d="M4470 6063 l0 -433 103 0 102 0 -3 432 -2 433 -100 0 -100 0 0 -432z"/>
<path d="M5048 6492 l-98 -3 0 -432 0 -432 223 -1 c122 0 264 -4 315 -8 87 -6
93 -6 88 11 -3 10 -8 54 -10 98 l-5 80 -33 3 c-18 1 -112 6 -208 10 -148 6
-175 9 -174 22 8 112 14 649 7 651 -4 2 -52 3 -105 1z"/>
<path d="M2460 6050 l0 -435 182 2 c221 3 310 16 383 52 122 62 199 165 241
323 16 58 16 73 4 125 -40 176 -169 308 -340 346 -54 12 -131 18 -273 20
l-197 2 0 -435z m446 226 c53 -27 126 -98 145 -141 35 -76 17 -183 -40 -243
-12 -12 -41 -35 -64 -49 -38 -24 -53 -27 -162 -31 l-120 -4 0 247 0 248 105
-6 c67 -3 116 -11 136 -21z"/>
<path d="M5590 6486 c0 -21 195 -343 276 -455 l65 -92 -5 -150 c-3 -83 -3
-156 0 -162 3 -9 35 -11 110 -9 l107 3 -5 157 c-5 164 1 202 34 202 10 0 18 7
18 15 0 15 38 106 67 160 9 17 28 44 43 60 28 29 58 75 82 125 7 14 29 50 50
81 21 31 38 59 38 62 0 3 -53 5 -119 4 l-119 -2 -23 -45 c-13 -25 -52 -92 -86
-150 -35 -58 -63 -110 -63 -116 0 -6 -7 -17 -15 -24 -12 -10 -18 -7 -32 20
-18 31 -98 167 -118 199 -6 9 -23 35 -38 58 -15 24 -27 47 -27 53 0 6 -45 10
-120 10 -66 0 -120 -2 -120 -4z"/>
<path d="M6640 6071 c-112 -14 -125 -24 -132 -100 l-3 -35 75 -23 c41 -13 89
-28 106 -34 17 -5 62 -9 101 -9 67 0 73 2 97 31 42 50 31 134 -21 158 -33 15
-145 21 -223 12z"/>
<path d="M2004 6053 c-47 -6 -69 -36 -69 -93 0 -63 21 -86 86 -95 64 -9 121 1
149 27 19 18 22 28 16 72 -3 28 -13 57 -23 67 -19 18 -103 30 -159 22z"/>
<path d="M3199 5015 c-3 -3 -3 -22 0 -42 5 -29 12 -38 31 -43 44 -10 50 -39
50 -267 l0 -213 -276 0 -275 0 6 218 c8 233 13 256 60 268 19 5 25 13 25 33
l0 27 -142 2 c-79 1 -198 4 -265 8 l-123 6 0 -25 c0 -34 10 -57 24 -57 6 0 28
-14 49 -31 l37 -30 0 -575 0 -575 -25 -24 c-13 -14 -33 -25 -43 -25 -27 0 -52
-32 -52 -66 l0 -29 236 -2 c145 -1 249 -6 271 -14 42 -13 47 -9 38 31 -5 22
-17 35 -43 48 -27 12 -38 25 -42 47 -3 17 -3 127 0 245 l5 215 265 0 265 0 3
-185 c2 -102 0 -208 -3 -236 -6 -48 -8 -52 -37 -58 -44 -9 -58 -24 -58 -60 l0
-31 270 0 270 0 0 33 c0 28 -4 33 -29 38 -17 4 -38 15 -48 26 -17 19 -18 53
-15 607 4 640 1 612 63 625 27 5 29 8 29 52 l0 47 -72 -5 c-85 -6 -406 6 -429
16 -8 4 -17 4 -20 1z"/>
<path d="M3891 4972 c8 -38 26 -62 45 -62 7 0 20 -11 29 -23 17 -27 20 -251 8
-864 -6 -339 -7 -353 -25 -353 -39 0 -58 -19 -58 -58 l0 -37 610 0 c335 0 610
1 610 1 0 1 -7 21 -15 44 -10 29 -15 81 -15 162 l0 119 -382 -1 -383 -2 -3
129 -3 128 303 -5 c167 -3 305 -5 308 -4 3 1 3 69 0 151 l-5 148 -302 -3
c-166 -1 -303 1 -305 5 -2 5 -1 59 2 122 l5 114 345 -2 c190 -1 355 -5 368 -8
22 -5 22 -5 22 130 0 75 4 147 10 162 7 19 6 27 -3 30 -6 2 -273 6 -593 7
l-581 3 8 -33z"/>
<path d="M5870 5000 c-76 -18 -121 -31 -138 -39 -9 -4 -47 -23 -85 -41 -92
-45 -190 -129 -264 -228 -120 -160 -155 -322 -119 -542 23 -138 65 -226 168
-352 57 -70 230 -172 338 -198 135 -34 328 -38 410 -9 136 47 223 101 349 220
90 86 91 87 69 101 -13 8 -34 19 -48 23 -14 4 -71 38 -127 75 -62 41 -103 62
-103 53 0 -23 -77 -99 -129 -126 -71 -36 -184 -52 -272 -37 -181 31 -281 142
-322 360 -9 48 -10 77 -2 110 23 92 60 163 103 196 18 14 44 36 59 50 15 13
38 27 52 31 14 3 32 11 40 17 8 6 63 11 135 11 112 0 125 -2 176 -27 31 -15
87 -52 125 -82 l69 -55 61 57 c84 79 105 95 140 107 22 8 31 18 33 37 3 21 -9
36 -60 81 -177 156 -328 217 -538 215 -47 0 -101 -4 -120 -8z"/>
<path d="M6720 4982 c0 -24 10 -37 55 -71 30 -23 56 -47 56 -54 1 -7 1 -271
-1 -587 -1 -373 -6 -579 -12 -587 -6 -7 -19 -13 -30 -13 -10 0 -32 -7 -48 -15
-26 -13 -30 -21 -30 -56 0 -38 2 -40 23 -32 32 12 489 4 505 -9 9 -8 12 -4 12
18 -1 33 -13 52 -52 77 -47 30 -60 69 -53 155 10 124 13 135 60 192 25 30 53
74 63 97 9 24 20 43 24 43 9 0 12 -3 111 -135 91 -122 90 -121 176 -221 34
-40 61 -81 61 -93 0 -22 -27 -41 -59 -41 -24 0 -25 -5 -11 -46 l10 -29 228 -1
c125 0 266 -4 313 -8 78 -6 87 -5 91 11 10 39 -8 67 -59 97 -29 17 -76 54
-105 82 -115 111 -324 355 -393 459 -22 33 -43 62 -47 63 -5 2 -8 9 -8 17 0 7
-7 18 -15 25 -31 25 -23 38 121 215 83 101 298 317 387 389 27 21 45 42 40 47
-4 4 -120 13 -258 19 -137 6 -260 13 -272 15 -21 5 -22 2 -16 -27 3 -18 10
-41 15 -50 6 -14 -6 -33 -57 -89 -36 -39 -96 -110 -133 -158 -36 -47 -92 -116
-123 -152 -31 -37 -71 -90 -89 -118 -18 -28 -37 -51 -41 -51 -8 0 0 464 10
504 4 18 19 36 36 46 25 14 31 24 33 59 l3 43 -33 -8 c-36 -9 -415 -7 -460 2
-26 5 -28 3 -28 -24z"/>
<path d="M1395 4981 c-134 -38 -247 -99 -365 -198 -36 -30 -107 -135 -134
-198 -29 -70 -56 -203 -56 -282 0 -31 7 -101 16 -157 23 -150 81 -264 189
-371 86 -87 150 -125 280 -171 74 -26 91 -28 235 -29 166 0 220 10 324 62 74
37 316 231 316 253 0 3 -33 25 -72 48 -40 22 -104 64 -143 92 -70 51 -70 51
-85 29 -86 -123 -248 -187 -405 -160 -140 25 -232 99 -281 226 -14 38 -19 75
-19 155 0 135 21 203 86 274 42 46 69 63 163 107 46 22 210 18 271 -6 61 -23
83 -36 164 -99 l63 -50 52 55 c61 64 111 103 146 114 14 4 31 12 38 17 14 12
16 48 2 48 -5 0 -49 34 -96 75 -75 64 -150 110 -239 147 -86 36 -352 47 -450
19z"/>
<path d="M7736 3228 c-2 -7 -12 -42 -21 -78 -20 -79 -106 -257 -173 -360 -27
-41 -83 -129 -125 -195 -42 -66 -119 -172 -173 -235 -121 -144 -312 -355 -356
-395 -19 -16 -74 -66 -124 -110 -416 -373 -969 -645 -1554 -764 -227 -46 -653
-87 -810 -77 -391 23 -713 74 -995 157 -308 91 -703 288 -990 494 -49 36 -99
69 -110 74 -70 32 -392 335 -522 491 -12 14 -50 59 -85 100 -72 87 -155 195
-221 292 -117 172 -287 501 -287 556 l0 34 -107 -9 c-60 -4 -224 -7 -366 -5
-237 3 -257 2 -257 -13 0 -84 196 -492 389 -809 241 -397 560 -765 896 -1035
12 -9 54 -43 95 -77 41 -33 111 -85 155 -115 44 -30 94 -64 110 -76 56 -40
200 -130 260 -163 33 -18 76 -43 95 -55 20 -13 58 -33 85 -45 28 -13 100 -46
160 -75 61 -29 137 -62 170 -73 33 -12 98 -35 145 -52 153 -56 261 -90 369
-115 58 -14 124 -30 146 -35 338 -80 746 -110 1145 -86 348 22 551 49 755 101
50 13 128 33 175 45 299 76 794 282 1005 419 22 14 49 31 60 38 91 56 142 89
152 98 6 5 51 37 98 70 146 102 286 205 324 239 20 18 68 61 106 96 109 97
401 418 470 515 17 24 68 96 115 161 108 150 155 224 257 399 110 187 293 600
293 659 0 26 -43 29 -264 20 -211 -9 -421 -8 -464 1 -13 3 -24 0 -26 -7z"/>
<path d="M4743 2665 c-78 -79 -168 -178 -198 -220 -68 -91 -86 -95 -142 -32
-124 139 -219 217 -273 224 -51 7 -77 -7 -245 -125 -135 -96 -165 -121 -165
-136 1 -6 47 -45 103 -86 101 -75 132 -100 262 -214 79 -70 277 -248 285 -256
20 -23 82 -61 94 -58 8 2 129 113 267 248 139 135 291 277 338 315 121 99 201
176 201 193 0 44 -123 163 -264 254 -95 62 -97 61 -263 -107z"/>
<path d="M2478 2781 c-38 -4 -71 -10 -74 -14 -11 -11 -6 -167 6 -182 6 -8 33
-22 58 -32 41 -16 78 -18 277 -17 127 0 242 4 258 7 l27 7 0 111 c0 79 -3 111
-12 114 -26 8 -475 13 -540 6z"/>
<path d="M6150 2780 l-215 -5 -12 -45 c-6 -25 -12 -73 -12 -107 -1 -88 -3 -87
266 -91 253 -4 319 7 380 64 30 28 33 37 33 86 0 30 -6 62 -13 72 -16 22 -77
36 -152 34 -33 -2 -157 -5 -275 -8z"/>
</g>
</svg>
