<?xml version="1.0" standalone="no"?>
<!DOCTYPE svg PUBLIC "-//W3C//DTD SVG 20010904//EN"
 "http://www.w3.org/TR/2001/REC-SVG-20010904/DTD/svg10.dtd">
<svg version="1.0" xmlns="http://www.w3.org/2000/svg"
 width="456.000000pt" height="766.000000pt" viewBox="0 0 456.000000 766.000000"
 preserveAspectRatio="xMidYMid meet">

<g transform="translate(0.000000,766.000000) scale(0.100000,-0.100000)"
fill="#000000" stroke="none">
<path d="M1770 7650 c-8 -5 -25 -10 -38 -10 -22 0 -33 -4 -82 -30 -14 -8 -43
-23 -65 -34 -24 -13 -328 -309 -764 -744 -642 -642 -728 -731 -758 -789 -18
-36 -33 -73 -33 -82 0 -9 -6 -23 -12 -29 -10 -10 -13 -387 -13 -1815 0 -1734
1 -1804 19 -1842 50 -109 64 -131 121 -188 73 -73 162 -122 267 -146 63 -15
3684 -16 3693 -1 3 5 16 10 29 10 13 0 36 6 52 14 16 8 46 22 67 31 41 19 187
160 187 180 0 7 7 18 15 25 8 7 17 27 21 46 3 19 10 37 15 40 5 3 9 18 9 34 0
16 4 32 10 35 14 9 14 4891 0 4900 -5 3 -10 15 -10 25 0 42 -75 163 -142 231
-37 38 -73 69 -78 69 -6 0 -27 11 -48 25 -84 55 -68 55 -1307 55 -719 0 -1146
-4 -1155 -10z m2335 -300 c28 -14 51 -28 53 -32 2 -3 14 -19 28 -35 13 -15 24
-38 24 -50 0 -12 5 -25 10 -28 7 -4 10 -818 10 -2410 l0 -2403 -26 -51 c-33
-63 -95 -105 -179 -121 -44 -8 -541 -10 -1815 -8 l-1755 3 -48 27 c-53 28
-106 91 -107 123 0 12 -5 26 -10 31 -7 7 -9 565 -8 1655 l3 1644 730 2 730 3
44 22 c50 26 131 102 131 124 0 8 8 27 18 41 16 25 17 82 20 760 l3 733 1047
-2 1047 -3 50 -25z m-2405 -670 c0 -687 1 -672 -69 -703 -34 -15 -99 -17 -649
-17 -461 0 -612 3 -612 12 0 15 1301 1317 1318 1318 9 0 12 -128 12 -610z"/>
<path d="M2342 6218 c-8 -8 -12 -51 -12 -120 l0 -108 600 0 600 0 0 120 0 120
-588 0 c-436 0 -592 -4 -600 -12z"/>
<path d="M987 5223 c-4 -3 -7 -55 -7 -115 l0 -108 1275 0 1276 0 -3 113 -3
112 -1266 3 c-696 1 -1269 -1 -1272 -5z"/>
<path d="M980 4115 l0 -115 1275 0 1275 0 0 115 0 115 -1275 0 -1275 0 0 -115z"/>
<path d="M987 3243 c-4 -3 -7 -57 -7 -120 l0 -113 1275 0 1275 0 0 120 0 120
-1268 0 c-698 0 -1272 -3 -1275 -7z"/>
<path d="M1196 1799 c-22 -18 -26 -28 -26 -75 l0 -54 -240 0 -241 0 -24 -25
c-29 -28 -32 -61 -9 -93 15 -22 18 -22 265 -22 l249 0 0 -35 0 -35 -355 0
c-342 0 -356 -1 -375 -20 -11 -11 -20 -32 -20 -47 0 -60 -13 -58 382 -63 l363
-5 3 -37 3 -38 -250 0 c-238 0 -252 -1 -271 -20 -28 -28 -25 -64 6 -89 25 -20
39 -21 270 -21 l244 0 0 -35 0 -35 -275 0 c-262 0 -276 -1 -295 -20 -26 -26
-26 -64 0 -90 19 -19 33 -20 295 -20 l275 0 0 -35 0 -35 -358 0 c-329 0 -360
-1 -375 -17 -28 -31 -30 -66 -7 -96 l21 -27 810 0 c796 0 809 0 829 20 11 11
20 33 20 50 0 17 -9 39 -20 50 -19 19 -33 20 -380 20 l-360 0 0 35 0 35 268 0
c257 0 270 1 287 20 24 27 24 79 0 96 -15 11 -77 14 -287 14 l-268 0 0 34 0
34 183 4 c246 6 278 21 300 137 l12 61 111 0 c127 0 148 11 148 77 0 60 -26
73 -154 73 l-108 0 -7 51 c-9 64 -48 111 -106 128 -23 7 -118 15 -210 18
l-169 6 0 32 c0 45 -19 94 -40 105 -31 17 -86 11 -114 -11z m444 -289 c11 -11
20 -27 20 -35 0 -13 -24 -15 -155 -15 l-155 0 0 35 0 35 135 0 c122 0 137 -2
155 -20z m18 -202 c2 -9 -6 -26 -17 -37 -19 -19 -33 -21 -156 -21 l-135 0 0
33 c0 19 3 37 7 41 4 3 72 5 152 4 128 -3 146 -5 149 -20z"/>
<path d="M2766 1734 c-26 -27 -26 -28 -26 -179 l0 -153 -156 -4 -156 -3 -24
-28 c-31 -36 -31 -71 1 -102 23 -24 29 -25 157 -25 l133 -1 -40 -35 c-63 -56
-159 -123 -243 -168 -56 -31 -78 -48 -85 -69 -13 -40 7 -82 49 -102 32 -15 37
-15 79 4 59 26 124 72 213 149 l72 63 0 -70 c0 -38 3 -77 6 -86 10 -26 62 -48
99 -41 51 10 70 39 70 107 0 32 4 59 8 59 17 0 94 -44 133 -76 63 -52 123 -44
143 19 22 64 -7 99 -130 157 -72 34 -104 37 -137 14 -22 -15 -22 -15 -22 30
l0 46 135 0 c131 0 137 1 160 25 26 25 32 63 15 95 -16 29 -66 40 -192 40
l-119 0 3 156 3 156 -28 24 c-38 33 -86 32 -121 -2z"/>
<path d="M3252 1693 c-22 -9 -44 -63 -37 -94 11 -51 35 -59 179 -59 l129 0 -7
-56 c-8 -71 -10 -74 -49 -74 -52 0 -110 -20 -141 -48 -55 -51 -56 -61 -56
-444 0 -322 2 -357 19 -394 22 -49 61 -81 107 -90 19 -3 34 -10 34 -14 0 -28
-158 -122 -260 -155 -102 -33 -138 -101 -86 -162 21 -25 31 -28 79 -27 47 0
74 9 179 62 210 104 282 189 218 257 l-23 25 92 0 92 0 -20 -26 c-12 -15 -21
-37 -21 -49 0 -78 242 -265 342 -265 49 0 99 42 100 85 2 60 -9 73 -105 119
-53 25 -115 65 -147 94 l-54 49 34 6 c47 10 99 53 121 101 17 37 19 70 19 386
0 394 -2 405 -80 456 -34 23 -54 28 -123 31 -45 3 -87 6 -94 8 -8 3 -7 20 4
64 l15 61 162 0 c149 0 164 2 184 20 29 27 30 92 2 120 -19 19 -33 20 -407 19
-214 0 -394 -3 -401 -6z m517 -423 c44 -12 51 -24 51 -88 l0 -52 -192 2 -193
3 -3 34 c-5 50 15 90 52 100 42 13 243 13 285 1z m59 -347 l-3 -68 -195 0
-195 0 -3 68 -3 67 201 0 201 0 -3 -67z m-8 -268 c0 -90 -9 -95 -190 -95 -147
0 -152 1 -175 25 -20 19 -25 34 -25 75 l0 50 195 0 195 0 0 -55z"/>
<path d="M2461 1661 c-17 -16 -31 -38 -31 -49 0 -11 21 -44 46 -74 25 -29 52
-65 60 -80 16 -31 43 -48 74 -48 30 0 80 53 80 85 0 71 -113 195 -178 195 -11
0 -34 -13 -51 -29z"/>
<path d="M3002 1601 c-75 -111 -78 -121 -51 -154 15 -21 29 -27 58 -27 31 0
44 7 82 48 109 114 120 143 70 193 -21 21 -39 29 -64 29 -32 0 -38 -6 -95 -89z"/>
<path d="M2767 850 c-20 -16 -27 -31 -29 -68 l-3 -47 -156 -3 c-142 -2 -158
-4 -175 -23 -26 -29 -24 -87 5 -110 20 -17 41 -19 162 -19 l139 0 0 -23 c0
-40 -58 -143 -106 -187 -38 -35 -135 -88 -206 -113 -51 -18 -61 -110 -15 -142
81 -56 319 72 417 225 18 27 34 50 37 50 11 0 72 -48 126 -99 48 -46 64 -55
94 -55 64 0 102 72 72 136 -13 29 -89 85 -174 129 -51 27 -65 38 -63 54 3 19
13 20 145 25 155 5 167 10 179 65 4 22 0 38 -16 58 -21 27 -22 27 -151 27
l-129 0 0 35 c0 42 -22 90 -45 99 -33 12 -83 6 -108 -14z"/>
<path d="M833 630 c-93 -19 -127 -69 -137 -200 -9 -106 6 -224 32 -259 44 -59
65 -64 319 -74 317 -13 656 1 704 29 64 38 74 70 74 240 0 146 -1 152 -27 191
-51 78 -50 78 -513 80 -225 1 -429 -3 -452 -7z m789 -137 c10 -9 18 -27 18
-40 l0 -23 -380 0 -380 0 0 24 c0 54 14 56 384 56 302 0 341 -2 358 -17z m22
-200 c-4 -16 -13 -33 -21 -40 -23 -18 -181 -26 -450 -21 -273 4 -293 8 -293
58 l0 30 385 0 385 0 -6 -27z"/>
</g>
</svg>
