<?xml version="1.0" standalone="no"?>
<!DOCTYPE svg PUBLIC "-//W3C//DTD SVG 20010904//EN"
 "http://www.w3.org/TR/2001/REC-SVG-20010904/DTD/svg10.dtd">
<svg version="1.0" xmlns="http://www.w3.org/2000/svg"
 width="592.000000pt" height="794.000000pt" viewBox="0 0 592.000000 794.000000"
 preserveAspectRatio="xMidYMid meet">

<g transform="translate(0.000000,794.000000) scale(0.100000,-0.100000)"
fill="#000000" stroke="none">
<path d="M675 7810 c-3 -5 -15 -10 -26 -10 -34 0 -120 -53 -179 -111 -68 -67
-112 -154 -129 -254 -18 -102 -11 -5098 7 -5169 7 -28 22 -69 33 -93 22 -46
128 -158 163 -174 12 -5 28 -13 36 -17 43 -24 62 -32 79 -32 11 0 23 -4 26
-10 9 -14 3591 -14 3600 0 3 5 16 10 29 10 39 0 129 52 189 109 31 30 57 60
57 66 0 6 11 22 25 35 14 13 25 35 25 50 0 14 6 32 13 38 9 10 12 423 14 1985
2 1085 5 1982 8 1994 5 21 7 21 282 25 264 3 280 5 323 26 66 32 117 86 153
162 22 44 22 53 22 520 0 261 -4 495 -9 520 -12 70 -44 125 -113 196 -61 62
-126 101 -224 133 -47 15 -4395 16 -4404 1z m1973 -1451 c26 -6 56 -15 67 -19
11 -5 36 -12 55 -16 19 -3 43 -14 53 -22 10 -9 33 -23 51 -32 127 -59 262
-223 316 -385 36 -106 50 -382 26 -515 -21 -118 -39 -187 -54 -202 -6 -6 -12
-15 -12 -20 0 -4 -14 -27 -30 -50 -17 -24 -43 -61 -58 -83 -27 -40 -60 -75
-71 -75 -3 0 -24 -16 -46 -35 -41 -35 -173 -105 -199 -105 -8 0 -17 -4 -20 -9
-9 -14 -72 -23 -201 -28 -141 -5 -182 4 -325 74 -131 64 -238 169 -305 298
-56 107 -64 133 -77 250 -17 146 -9 423 12 450 4 6 15 37 25 70 10 33 23 67
30 75 6 8 24 38 40 65 35 62 156 182 216 214 89 48 139 71 157 71 10 0 22 3
26 8 28 27 237 41 324 21z m-258 -1789 c103 -20 124 -21 200 -10 47 6 103 14
125 17 22 3 44 9 49 14 13 12 83 11 91 -1 3 -5 16 -10 27 -10 24 0 124 -27
150 -41 10 -5 28 -9 42 -9 13 0 29 -7 36 -15 7 -8 16 -15 21 -15 19 0 108 -46
179 -94 139 -92 322 -300 371 -421 6 -16 22 -53 35 -81 13 -28 24 -58 24 -67
0 -9 5 -19 10 -22 6 -3 10 -24 10 -45 0 -21 4 -41 9 -44 5 -3 12 -25 15 -48
11 -71 24 -242 19 -250 -2 -5 -583 -8 -1290 -8 l-1286 0 7 108 c7 102 27 220
47 270 5 13 9 30 9 38 0 15 85 196 113 239 86 137 200 258 292 310 28 16 64
38 80 50 35 25 131 71 220 105 33 13 107 32 148 37 20 3 40 10 43 15 7 12 49
7 204 -22z"/>
<path d="M4883 6024 c-10 -4 -13 -171 -13 -785 l0 -779 170 0 c107 0 170 4
170 10 0 6 8 10 19 10 10 0 24 7 31 15 7 8 18 15 25 15 15 0 97 87 111 120 31
68 34 115 34 615 0 493 -4 568 -32 600 -4 5 -8 16 -8 26 0 22 -99 114 -146
135 -30 13 -75 18 -194 20 -85 2 -161 1 -167 -2z"/>
<path d="M683 1828 c-13 -6 -50 -50 -83 -99 -76 -111 -186 -221 -293 -293
-113 -76 -133 -122 -78 -177 76 -76 215 1 422 234 112 126 169 210 169 248 0
61 -84 114 -137 87z"/>
<path d="M2848 1826 c-32 -24 -40 -67 -36 -196 l3 -125 -30 -3 c-28 -3 -33 2
-56 50 -39 78 -114 174 -149 188 -35 15 -67 8 -103 -21 -43 -33 -36 -67 27
-140 30 -35 53 -66 50 -71 -3 -4 -58 -5 -124 -1 -161 8 -200 -9 -200 -87 0
-19 9 -40 25 -55 l24 -25 228 0 c176 0 224 -3 215 -12 -17 -17 -15 -43 8 -88
11 -22 20 -42 20 -45 0 -3 -81 -5 -180 -5 -179 0 -181 0 -205 -25 -32 -31 -32
-69 0 -100 l24 -25 279 0 280 0 4 -35 c2 -20 -1 -36 -7 -36 -5 -1 -107 -1
-225 1 -208 2 -216 1 -242 -20 -34 -26 -37 -71 -8 -100 19 -19 33 -20 256 -20
l235 0 -3 -37 -3 -38 -331 0 c-312 0 -333 -1 -353 -19 -28 -25 -29 -86 -1
-111 19 -17 41 -18 295 -16 151 1 275 0 275 -3 0 -9 -163 -113 -250 -159 -47
-25 -139 -66 -205 -91 -162 -63 -182 -74 -195 -106 -16 -38 3 -77 49 -104 33
-19 33 -19 102 3 129 42 440 209 559 301 65 50 61 59 59 -141 -1 -178 -1 -183
21 -201 31 -25 100 -24 133 3 l27 20 2 180 3 180 60 -44 c209 -150 562 -320
631 -303 60 15 97 91 70 144 -13 25 -32 35 -138 72 -167 58 -328 127 -413 177
-133 79 -146 73 174 71 l284 -1 19 22 c23 30 23 73 -1 102 l-19 24 -336 -4
-336 -3 0 41 0 41 228 0 c190 0 231 3 250 16 26 18 30 69 8 100 -14 18 -28 19
-248 19 l-233 0 -3 38 -3 37 281 0 281 0 24 25 c32 31 32 69 0 100 -24 25 -26
25 -204 25 l-180 0 15 35 c18 45 18 74 -3 97 -16 17 -8 18 224 18 228 0 242 1
267 21 34 27 37 96 5 125 -19 17 -37 19 -165 18 -79 -1 -144 0 -144 2 0 2 18
31 40 65 48 74 52 115 15 152 -32 31 -71 39 -111 22 -26 -11 -40 -32 -87 -129
-53 -111 -57 -116 -86 -116 l-31 0 0 145 c0 142 -1 147 -25 170 -34 35 -93 34
-129 -1 -26 -26 -26 -29 -26 -170 l0 -144 -55 0 -55 0 0 145 c0 142 -1 147
-25 170 -27 28 -88 34 -117 11z m352 -495 c0 -5 -9 -39 -20 -75 l-21 -66 -108
0 -108 0 -12 40 c-6 22 -26 56 -42 75 l-31 35 171 0 c94 0 171 -4 171 -9z"/>
<path d="M1558 1780 c-9 -6 -29 -43 -44 -83 -15 -39 -51 -122 -80 -184 l-52
-112 -227 -3 -227 -3 -24 -28 c-33 -39 -31 -81 5 -118 l29 -29 171 0 171 0 0
-390 c0 -239 -4 -390 -9 -390 -16 0 -59 63 -89 131 -44 98 -54 151 -46 249 9
122 -13 159 -94 160 -32 0 -49 -6 -67 -25 -22 -21 -25 -33 -25 -102 0 -99 -24
-259 -51 -343 -24 -74 -67 -155 -115 -219 -44 -57 -47 -110 -8 -140 35 -28 86
-36 120 -19 40 18 95 102 133 200 17 46 35 92 40 103 7 17 12 11 37 -39 67
-138 187 -222 358 -251 150 -26 420 -14 472 20 29 18 44 70 32 110 -15 55 -26
58 -205 50 -89 -4 -191 -4 -227 0 l-66 7 0 214 0 214 175 0 c173 0 176 0 200
25 34 33 34 93 2 123 -22 21 -32 22 -200 22 l-177 0 0 145 0 145 190 0 c238 0
260 8 260 94 0 26 -19 60 -43 78 -1 0 -71 4 -154 7 l-153 6 36 60 c56 91 114
208 114 228 0 25 -18 59 -44 79 -23 19 -91 23 -118 8z"/>
<path d="M1033 1760 c-46 -42 -43 -56 42 -184 28 -41 59 -90 70 -108 17 -28
27 -33 64 -36 36 -3 48 1 73 25 27 25 29 33 25 76 -5 59 -80 174 -141 218 -47
35 -102 39 -133 9z"/>
<path d="M4570 1761 c-113 -18 -135 -51 -135 -207 0 -129 11 -153 81 -189 37
-19 62 -20 457 -23 440 -3 503 1 552 39 45 36 59 76 59 174 1 112 -18 156 -78
188 -40 22 -49 22 -466 24 -234 0 -445 -2 -470 -6z m790 -154 c20 -10 25 -20
25 -52 0 -64 -3 -65 -391 -65 -382 0 -378 -1 -372 65 2 30 9 42 28 52 36 18
674 18 710 0z"/>
<path d="M698 1423 c-14 -16 -47 -62 -74 -103 -64 -98 -237 -272 -342 -345
-48 -33 -88 -68 -93 -83 -14 -37 -2 -78 33 -107 50 -43 92 -32 194 51 30 25
57 44 59 42 1 -2 -1 -93 -5 -203 -5 -110 -10 -275 -12 -367 -3 -163 -2 -168
20 -190 33 -33 104 -31 140 5 l26 26 12 443 c7 244 13 452 14 463 0 11 25 49
56 85 86 99 134 177 134 217 0 82 -107 125 -162 66z"/>
<path d="M4506 1245 c-57 -20 -88 -46 -111 -91 -19 -36 -20 -59 -20 -309 0
-292 4 -322 53 -368 40 -38 90 -56 182 -63 l82 -7 -38 -23 c-80 -48 -220 -90
-397 -119 -75 -12 -100 -112 -42 -163 35 -30 91 -29 225 3 171 42 371 130 405
178 19 27 19 68 0 93 -8 10 -15 22 -15 27 0 4 75 7 166 7 154 0 166 -1 159
-17 -18 -41 -17 -84 1 -105 24 -27 194 -107 299 -141 207 -67 277 -73 327 -28
28 25 33 36 33 76 0 65 -30 90 -120 100 -85 9 -233 48 -310 83 l-60 27 81 6
c103 8 165 36 202 92 l27 41 0 297 c0 286 -1 299 -21 326 -30 41 -78 70 -135
82 -80 18 -923 14 -973 -4z m913 -150 c11 -11 23 -32 26 -47 l7 -28 -446 0
c-445 0 -446 0 -446 21 0 11 13 34 30 50 l29 30 390 -3 c375 -3 391 -4 410
-23z m31 -255 l0 -50 -445 0 -445 0 0 50 0 50 445 0 445 0 0 -50z m-4 -212
c-14 -73 -40 -78 -406 -77 -364 0 -436 6 -461 38 -11 13 -19 34 -19 47 l0 24
446 0 447 0 -7 -32z"/>
</g>
</svg>
