<?xml version="1.0" standalone="no"?>
<!DOCTYPE svg PUBLIC "-//W3C//DTD SVG 20010904//EN"
 "http://www.w3.org/TR/2001/REC-SVG-20010904/DTD/svg10.dtd">
<svg version="1.0" xmlns="http://www.w3.org/2000/svg"
 width="524.000000pt" height="754.000000pt" viewBox="0 0 524.000000 754.000000"
 preserveAspectRatio="xMidYMid meet">

<g transform="translate(0.000000,754.000000) scale(0.100000,-0.100000)"
fill="#000000" stroke="none">
<path d="M2575 7440 c-11 -5 -34 -9 -52 -9 -17 -1 -35 -5 -38 -11 -3 -5 -12
-10 -20 -10 -25 0 -142 -60 -173 -88 -17 -16 -47 -42 -68 -58 -21 -16 -59 -49
-84 -74 -109 -105 -232 -221 -329 -310 -57 -52 -136 -126 -176 -165 -39 -38
-105 -99 -145 -135 -39 -36 -122 -113 -184 -172 -61 -59 -129 -124 -151 -144
-22 -20 -87 -81 -145 -136 -58 -54 -141 -131 -184 -171 -44 -40 -159 -151
-256 -247 -164 -162 -180 -181 -214 -255 -52 -110 -54 -115 -62 -155 -4 -19
-9 -696 -11 -1505 -4 -1451 -2 -1580 28 -1634 4 -9 16 -34 25 -56 20 -45 78
-135 118 -180 14 -16 26 -33 26 -36 0 -4 14 -12 30 -19 17 -7 39 -23 49 -36
11 -13 25 -24 33 -24 8 0 23 -9 33 -20 10 -11 26 -20 35 -20 9 0 20 -3 24 -7
11 -11 90 -31 186 -48 73 -13 327 -15 1845 -12 1790 2 1863 4 1899 38 6 5 18
9 27 9 24 0 147 64 187 97 91 75 159 157 188 223 3 8 12 29 20 45 13 32 29 87
45 166 15 75 7 2995 -8 3011 -7 6 -13 25 -13 40 0 15 -4 28 -10 28 -5 0 -10
11 -10 25 0 24 -14 54 -66 137 -23 38 -336 358 -349 358 -7 0 -37 28 -171 157
-56 54 -137 130 -180 168 -43 39 -126 116 -184 172 -103 100 -145 139 -232
217 -23 22 -106 100 -183 173 -178 170 -202 193 -207 193 -2 0 -66 61 -142
135 -76 74 -140 135 -143 135 -2 0 -14 10 -27 23 -13 12 -36 31 -51 42 -16 11
-33 25 -39 31 -6 5 -38 23 -71 39 -33 16 -61 33 -63 37 -2 4 -15 8 -28 8 -13
0 -32 4 -42 9 -51 28 -239 42 -287 21z m191 -546 c21 -14 55 -42 75 -62 78
-79 256 -249 289 -276 19 -16 92 -83 161 -150 69 -66 158 -150 198 -186 40
-36 124 -116 188 -177 63 -62 117 -113 119 -113 6 0 70 -59 172 -159 54 -52
140 -132 192 -179 190 -170 390 -373 390 -398 0 -12 5 -26 10 -29 7 -4 10
-483 10 -1405 0 -922 -3 -1401 -10 -1405 -6 -3 -10 -18 -10 -33 0 -20 -11 -35
-43 -57 l-42 -30 -577 -3 c-396 -2 -584 1 -598 8 -19 10 -20 22 -22 593 l-3
582 -582 3 -583 2 0 -584 c0 -491 -2 -585 -14 -595 -11 -9 -162 -11 -598 -9
-562 3 -584 4 -615 23 -18 11 -40 38 -50 60 -17 37 -18 115 -18 1450 0 1386 0
1411 20 1453 11 23 23 42 26 42 4 0 44 36 90 81 46 44 129 122 183 172 171
157 215 200 278 265 34 34 65 62 68 62 4 0 33 26 66 58 123 119 293 280 374
352 45 41 127 118 182 170 54 52 123 118 153 145 31 28 110 102 177 165 167
159 209 190 263 190 29 0 54 -8 81 -26z"/>
<path d="M769 1484 c-23 -25 -24 -31 -24 -172 l0 -147 -236 -6 c-141 -4 -251
-11 -273 -19 -69 -22 -84 -106 -28 -151 27 -21 32 -21 285 -14 l257 7 0 -290
c0 -196 -4 -299 -11 -316 -15 -33 -57 -47 -106 -35 -21 5 -55 9 -76 9 -88 0
-132 -109 -67 -164 38 -31 82 -41 185 -40 128 0 199 36 236 119 17 36 19 72
19 381 l0 341 245 -1 244 -1 28 27 c34 34 37 89 7 119 -33 32 -84 39 -311 39
l-213 0 0 145 c0 142 -1 147 -25 170 -35 36 -102 35 -136 -1z"/>
<path d="M4434 1419 c-31 -16 -49 -54 -77 -164 -48 -185 -157 -495 -269 -767
l-61 -146 -56 -7 c-31 -4 -68 -13 -83 -21 -103 -53 -61 -184 59 -184 80 0 736
135 923 190 58 17 65 13 96 -51 35 -73 64 -99 113 -99 68 0 118 61 106 129 -8
46 -63 147 -123 225 -60 79 -229 254 -264 272 -46 24 -96 18 -129 -15 -47 -47
-40 -69 56 -173 47 -50 85 -95 85 -100 0 -4 -12 -10 -27 -14 -16 -3 -44 -10
-64 -15 -83 -21 -421 -89 -440 -89 -13 0 -19 5 -16 13 158 370 327 846 327
923 0 62 -40 104 -97 103 -21 0 -47 -5 -59 -10z"/>
<path d="M2115 947 c-18 -15 -28 -36 -32 -64 -5 -37 -2 -45 25 -73 l30 -30
660 0 659 0 27 26 c20 21 26 37 26 69 0 32 -6 48 -26 69 l-27 26 -658 0 -658
0 -26 -23z"/>
<path d="M1087 792 c-54 -56 -34 -97 88 -184 44 -32 130 -117 218 -216 40 -45
87 -44 133 2 59 59 42 118 -66 226 -49 49 -190 154 -241 181 -56 28 -100 25
-132 -9z"/>
<path d="M407 786 c-12 -13 -40 -49 -61 -80 -37 -52 -130 -147 -219 -222 -32
-27 -37 -37 -37 -73 0 -82 91 -130 160 -85 109 73 310 335 310 404 0 12 -13
35 -29 51 -38 38 -92 40 -124 5z"/>
</g>
</svg>
