<?xml version="1.0" standalone="no"?>
<!DOCTYPE svg PUBLIC "-//W3C//DTD SVG 20010904//EN"
 "http://www.w3.org/TR/2001/REC-SVG-20010904/DTD/svg10.dtd">
<svg version="1.0" xmlns="http://www.w3.org/2000/svg"
 width="786.000000pt" height="804.000000pt" viewBox="0 0 786.000000 804.000000"
 preserveAspectRatio="xMidYMid meet">

<g transform="translate(0.000000,804.000000) scale(0.100000,-0.100000)"
fill="#000000" stroke="none">
<path d="M2745 7880 c-16 -4 -51 -8 -77 -9 -27 0 -53 -7 -62 -16 -8 -8 -28
-15 -43 -15 -16 0 -38 -7 -49 -15 -10 -8 -27 -15 -37 -15 -10 0 -20 -7 -23
-15 -4 -8 -12 -15 -20 -15 -8 0 -14 -4 -14 -10 0 -5 -5 -10 -10 -10 -17 0 -99
-64 -100 -77 0 -7 -7 -13 -15 -13 -8 0 -15 -7 -15 -15 0 -8 -6 -15 -12 -15 -7
0 -22 -18 -32 -40 -11 -22 -23 -40 -27 -40 -4 0 -12 -12 -18 -27 -6 -16 -15
-35 -20 -43 -5 -8 -12 -22 -15 -30 -3 -8 -10 -22 -15 -30 -6 -8 -18 -34 -27
-57 -10 -24 -21 -43 -26 -43 -4 0 -8 -8 -8 -18 0 -10 -7 -27 -15 -38 -8 -10
-15 -26 -15 -34 0 -8 -7 -28 -15 -44 -8 -15 -15 -34 -15 -41 0 -7 -7 -18 -15
-25 -8 -7 -15 -23 -15 -35 0 -13 -4 -25 -9 -27 -4 -1 -25 -38 -46 -82 -73
-153 -37 -144 -623 -148 -331 -2 -485 -7 -490 -14 -4 -6 -25 -14 -46 -17 -22
-4 -42 -10 -45 -14 -3 -4 -37 -23 -75 -42 -37 -19 -81 -47 -96 -63 -16 -15
-32 -28 -37 -28 -14 0 -62 -49 -78 -80 -9 -17 -19 -30 -24 -30 -4 0 -34 -52
-65 -115 -45 -89 -59 -128 -63 -175 -3 -33 -10 -60 -14 -60 -5 0 -9 -789 -9
-1775 0 -1121 4 -1775 10 -1775 5 0 12 -17 16 -37 3 -21 13 -54 22 -73 39 -91
85 -179 103 -198 10 -12 19 -24 19 -27 0 -5 50 -55 103 -103 14 -12 29 -22 34
-22 6 0 20 -9 33 -20 13 -11 31 -20 42 -20 10 0 18 -4 18 -9 0 -14 65 -41 97
-41 16 0 34 -5 41 -12 6 -6 51 -16 99 -21 119 -13 5991 -21 6018 -8 11 5 51
12 88 14 38 3 74 10 80 16 6 6 23 11 38 11 15 0 34 7 43 15 8 8 24 15 36 15
11 0 23 7 26 15 4 8 15 15 25 15 10 0 27 8 37 17 11 10 45 40 77 68 32 27 73
72 90 100 18 28 40 57 49 64 9 7 16 21 16 30 0 9 7 25 15 35 8 11 15 32 15 47
0 14 7 32 15 39 9 8 15 29 15 56 0 23 4 46 10 49 13 8 14 3571 1 3579 -5 3
-12 26 -15 51 -4 24 -11 47 -17 50 -5 4 -9 15 -9 26 0 32 -44 120 -84 169 -52
64 -106 120 -115 120 -4 0 -20 14 -36 30 -16 17 -37 30 -46 30 -10 0 -31 14
-47 30 -20 20 -41 30 -60 30 -16 0 -35 7 -42 15 -7 8 -27 15 -44 15 -18 0 -38
6 -44 13 -10 9 -125 13 -490 15 -293 2 -478 7 -480 12 -2 6 -9 10 -15 10 -21
0 -76 45 -82 67 -3 13 -10 23 -15 23 -6 0 -10 8 -10 19 0 10 -7 24 -15 31 -8
7 -15 27 -15 45 0 18 -7 38 -15 45 -8 7 -15 18 -15 24 0 6 -18 47 -40 90 -22
43 -40 86 -40 96 0 10 -7 23 -15 30 -8 7 -15 19 -15 27 0 13 -15 48 -41 93 -5
8 -12 22 -15 30 -3 8 -10 22 -15 30 -5 8 -12 23 -15 33 -4 9 -10 17 -14 17 -5
0 -12 9 -15 20 -8 24 -118 140 -133 140 -5 0 -12 6 -15 13 -2 7 -26 23 -53 36
-27 14 -53 30 -57 38 -4 7 -19 13 -32 13 -14 0 -25 5 -25 10 0 6 -10 10 -23
10 -13 0 -28 5 -35 12 -32 32 -213 37 -1372 36 -630 0 -1158 -4 -1175 -8z
m2427 -568 c46 -30 98 -113 98 -156 0 -14 5 -26 10 -26 6 0 10 -9 10 -19 0
-11 6 -26 13 -33 17 -18 77 -140 77 -158 0 -8 7 -24 15 -34 8 -11 15 -30 15
-42 0 -12 7 -27 15 -34 8 -7 15 -21 15 -31 0 -11 4 -19 9 -19 5 0 12 -13 16
-30 4 -16 10 -30 14 -30 4 0 15 -19 26 -42 10 -24 24 -47 32 -51 7 -4 13 -13
13 -18 0 -13 113 -129 126 -129 5 -1 20 -14 34 -30 13 -17 33 -30 43 -30 11 0
28 -11 39 -25 14 -18 29 -25 53 -25 18 0 38 -7 45 -15 8 -9 30 -15 59 -15 26
0 53 -6 59 -12 10 -10 125 -13 486 -15 l474 -2 36 -36 c20 -20 39 -50 43 -66
3 -16 10 -32 14 -35 5 -3 9 -749 9 -1702 l0 -1697 -27 -53 c-15 -30 -40 -61
-58 -72 -32 -20 -64 -20 -3039 -20 l-3007 0 -39 23 c-22 12 -43 31 -49 42 -44
95 -41 -20 -39 1787 l3 1693 23 42 c12 24 35 51 50 60 15 10 30 21 33 26 3 5
224 9 489 11 371 1 484 4 488 14 2 7 21 12 44 12 22 0 52 6 66 14 15 8 34 17
42 20 8 3 22 10 30 15 8 5 22 12 30 15 15 6 43 23 67 41 50 37 183 185 183
204 0 5 13 24 30 41 16 16 32 46 36 65 3 19 10 38 15 41 5 3 9 16 9 29 0 12 7
25 15 29 8 3 15 12 15 20 0 9 14 41 30 71 17 30 30 67 30 80 0 14 4 25 9 25 5
0 12 14 16 30 4 17 11 30 16 30 5 0 9 9 9 19 0 11 7 26 15 35 8 8 15 21 15 29
0 8 7 20 15 27 8 7 15 23 15 35 0 13 7 25 15 29 8 3 15 12 15 21 0 8 5 15 11
15 6 0 17 7 25 15 14 13 163 15 1222 15 1137 0 1209 -1 1234 -18z"/>
<path d="M3705 6173 c-22 -2 -44 -8 -50 -13 -5 -4 -38 -11 -73 -15 -34 -4 -65
-11 -68 -16 -3 -5 -18 -9 -34 -9 -16 0 -35 -7 -44 -15 -8 -8 -24 -15 -36 -15
-12 0 -34 -6 -48 -14 -15 -8 -34 -17 -42 -20 -8 -3 -24 -11 -35 -18 -39 -22
-50 -28 -65 -34 -72 -30 -90 -39 -90 -46 0 -4 -5 -8 -10 -8 -12 0 -73 -41 -78
-52 -2 -5 -9 -8 -16 -8 -6 0 -34 -20 -63 -45 -28 -25 -53 -45 -56 -45 -11 0
-157 -148 -157 -159 0 -6 -6 -11 -13 -11 -7 0 -23 -18 -36 -40 -12 -22 -26
-40 -32 -40 -5 0 -9 -4 -9 -9 0 -6 -10 -21 -23 -35 -12 -13 -33 -46 -46 -73
-13 -26 -32 -57 -43 -69 -23 -25 -58 -93 -58 -111 0 -8 -7 -16 -15 -19 -8 -4
-15 -18 -15 -33 -1 -14 -7 -37 -15 -51 -8 -14 -14 -37 -15 -51 0 -15 -7 -32
-15 -39 -8 -7 -15 -27 -15 -46 0 -18 -4 -35 -9 -38 -5 -4 -12 -30 -16 -59 -4
-28 -11 -57 -16 -63 -5 -6 -12 -69 -15 -140 -3 -71 -10 -142 -15 -158 -5 -16
-5 -34 0 -40 4 -6 11 -69 15 -141 4 -71 12 -135 17 -141 6 -7 12 -34 15 -61 3
-26 9 -52 14 -57 6 -6 10 -22 10 -37 0 -15 6 -34 14 -41 7 -8 17 -33 21 -56 4
-23 11 -42 16 -42 5 0 9 -9 9 -19 0 -11 7 -26 15 -35 8 -8 15 -26 15 -39 0
-14 4 -27 8 -29 9 -3 13 -11 62 -105 14 -26 31 -52 37 -56 7 -4 13 -15 13 -22
0 -8 4 -15 8 -15 4 0 19 -18 32 -40 14 -22 28 -40 33 -40 4 0 7 -5 7 -10 0
-16 233 -250 248 -250 7 0 15 -7 18 -15 4 -8 12 -15 18 -15 7 0 25 -13 41 -30
16 -17 37 -30 47 -30 10 0 21 -7 24 -15 3 -8 49 -35 102 -61 54 -26 99 -50
102 -53 7 -9 103 -41 121 -41 9 0 19 -7 23 -15 3 -9 18 -15 39 -15 18 0 37 -4
43 -10 5 -5 39 -13 74 -16 36 -4 70 -11 77 -16 7 -6 67 -12 133 -15 66 -3 123
-10 126 -14 7 -12 71 -12 78 0 3 4 59 10 125 13 66 3 126 10 133 15 7 6 36 14
63 18 28 4 55 10 60 15 6 4 29 10 52 14 23 3 63 17 89 31 26 14 55 25 64 25
10 0 23 7 30 15 7 8 21 15 31 15 11 0 19 4 19 9 0 5 14 12 30 16 17 4 30 11
30 16 0 5 6 9 14 9 8 0 21 6 28 13 7 6 32 21 55 32 24 11 43 26 43 33 0 6 6
12 14 12 8 0 16 3 18 8 2 4 22 20 46 36 23 16 42 33 42 37 0 5 5 9 10 9 15 0
184 173 222 227 18 26 43 57 56 69 12 12 22 27 22 33 0 7 11 27 24 44 13 18
27 42 30 54 4 11 13 24 21 27 8 3 15 12 15 19 0 8 13 41 30 73 16 32 30 69 30
81 0 12 4 24 9 28 5 3 12 19 16 35 4 17 10 30 15 30 4 0 10 22 14 50 4 27 11
52 16 55 6 3 10 21 10 40 0 19 5 46 12 62 6 15 15 87 19 158 4 72 10 145 14
163 4 18 3 38 -3 45 -5 6 -10 57 -11 112 -1 107 -9 165 -21 165 -4 0 -10 23
-13 52 -4 28 -11 56 -17 62 -5 5 -10 27 -10 47 0 24 -5 39 -15 43 -9 3 -15 18
-15 34 0 16 -11 49 -25 73 -14 24 -27 51 -31 59 -15 37 -40 85 -46 90 -3 3
-10 18 -13 33 -4 15 -11 27 -16 27 -5 0 -9 7 -9 15 0 8 -5 15 -10 15 -6 0 -15
10 -20 23 -15 34 -42 74 -72 108 -10 10 -18 22 -18 25 0 4 -18 24 -40 45 -22
22 -40 41 -40 44 0 13 -150 146 -174 154 -6 2 -23 17 -37 32 -14 16 -31 29
-37 29 -7 0 -12 4 -12 10 0 8 -79 50 -95 50 -3 0 -16 10 -28 23 -27 27 -82 57
-107 57 -10 0 -20 6 -23 14 -3 8 -24 17 -46 21 -23 4 -43 11 -47 16 -3 5 -21
9 -40 9 -22 0 -37 6 -40 15 -4 10 -20 15 -44 15 -22 0 -41 4 -45 9 -3 5 -31
12 -63 16 -31 3 -66 11 -77 17 -20 12 -418 21 -500 11z m331 -412 c5 -5 49
-11 98 -13 60 -2 91 -7 94 -16 2 -6 15 -12 28 -12 14 0 41 -7 61 -15 19 -8 44
-15 55 -15 10 0 21 -7 24 -15 4 -8 17 -15 30 -15 14 0 27 -7 30 -15 4 -8 17
-15 30 -15 13 0 24 -4 24 -10 0 -5 9 -10 19 -10 11 0 26 -6 33 -14 8 -7 24
-17 36 -20 13 -4 47 -31 76 -59 56 -56 81 -74 109 -83 9 -4 17 -12 17 -18 0
-14 40 -65 85 -111 28 -29 45 -52 62 -85 4 -8 13 -21 20 -28 7 -7 13 -22 13
-32 0 -10 4 -20 9 -22 12 -4 71 -118 71 -137 0 -9 6 -28 14 -43 8 -14 17 -49
21 -77 4 -28 11 -51 16 -51 5 0 9 -14 9 -31 0 -17 7 -79 16 -137 12 -86 13
-120 4 -191 -7 -47 -14 -113 -17 -146 -3 -33 -12 -69 -19 -80 -8 -11 -14 -34
-14 -51 0 -17 -7 -45 -15 -60 -8 -16 -15 -37 -15 -47 0 -10 -11 -28 -25 -41
-14 -13 -25 -30 -25 -39 0 -9 -6 -22 -13 -29 -8 -7 -17 -26 -21 -41 -3 -15
-11 -27 -16 -27 -6 0 -10 -9 -10 -19 0 -11 -20 -39 -45 -63 -24 -24 -45 -49
-45 -55 0 -7 -3 -13 -7 -13 -5 0 -19 -18 -33 -40 -13 -22 -29 -40 -35 -40 -6
0 -25 -13 -43 -30 -18 -17 -35 -30 -38 -30 -2 0 -22 -18 -43 -39 -21 -21 -48
-42 -59 -45 -11 -4 -26 -13 -32 -21 -7 -8 -21 -15 -31 -15 -11 0 -19 -4 -19
-9 0 -5 -13 -12 -30 -16 -16 -4 -30 -11 -30 -16 0 -5 -8 -9 -19 -9 -10 0 -24
-7 -31 -15 -7 -8 -25 -15 -39 -15 -15 0 -36 -7 -47 -15 -10 -8 -33 -15 -50
-15 -18 0 -34 -6 -37 -14 -11 -28 -327 -40 -506 -18 -52 7 -97 16 -100 21 -3
5 -23 12 -44 16 -20 4 -40 11 -43 16 -3 5 -20 9 -38 9 -19 0 -39 7 -46 15 -7
8 -20 15 -30 15 -9 0 -25 9 -35 20 -10 11 -45 33 -79 49 -34 17 -68 39 -76 51
-8 11 -20 20 -28 20 -7 0 -15 7 -18 15 -4 8 -10 15 -15 15 -5 0 -17 8 -27 18
-11 9 -31 26 -45 36 -15 10 -27 24 -27 30 0 6 -8 18 -17 27 -10 8 -34 35 -53
59 -19 24 -42 51 -50 60 -17 19 -36 53 -88 155 -20 39 -40 72 -44 73 -4 2 -8
16 -8 32 0 15 -7 41 -15 56 -8 16 -15 41 -15 56 0 14 -5 28 -12 30 -7 3 -13
38 -16 99 -2 52 -8 98 -13 104 -12 13 -11 222 1 230 6 3 10 33 10 67 0 33 6
74 13 91 21 49 47 133 47 150 0 9 6 22 13 29 11 12 36 60 51 98 3 8 10 22 15
30 5 8 17 33 27 55 11 21 36 56 57 77 20 20 37 40 37 44 0 16 120 134 137 134
7 0 13 7 13 15 0 8 4 15 9 15 4 0 19 10 33 23 30 27 121 87 171 112 20 11 37
23 37 27 0 5 8 8 18 8 10 0 27 7 38 15 10 8 30 15 44 15 14 0 36 7 50 15 14 8
41 14 61 15 20 0 42 7 49 15 9 11 34 15 99 15 47 0 93 5 101 10 19 12 143 13
156 1z"/>
<path d="M3790 5283 c-19 -3 -38 -9 -41 -15 -3 -5 -25 -12 -48 -15 -22 -3 -41
-10 -41 -14 0 -5 -8 -9 -19 -9 -10 0 -24 -7 -31 -15 -7 -8 -17 -15 -22 -15
-26 0 -218 -166 -218 -189 0 -6 -5 -11 -11 -11 -5 0 -15 -13 -20 -30 -6 -16
-15 -30 -20 -30 -5 0 -9 -11 -9 -24 0 -13 -7 -26 -15 -30 -8 -3 -15 -17 -15
-31 0 -14 -4 -25 -10 -25 -5 0 -12 -17 -16 -37 -4 -21 -10 -42 -14 -48 -5 -5
-11 -37 -15 -70 -4 -33 -11 -75 -15 -93 -6 -22 -4 -51 6 -88 8 -30 14 -75 14
-99 0 -25 5 -45 10 -45 6 0 10 -12 10 -27 0 -16 9 -41 20 -58 11 -16 20 -38
20 -47 0 -10 4 -18 9 -18 5 0 12 -13 16 -30 4 -16 11 -30 16 -30 5 0 9 -7 9
-15 0 -8 7 -15 15 -15 8 0 15 -5 15 -11 0 -19 146 -156 174 -163 14 -3 26 -11
26 -16 0 -6 10 -10 23 -10 12 0 28 -9 35 -21 7 -11 19 -19 26 -16 6 3 20 -1
31 -9 10 -8 31 -14 46 -14 14 0 32 -7 39 -15 18 -22 327 -22 356 0 10 8 27 15
37 15 18 0 77 22 107 41 8 5 29 15 45 23 34 15 61 38 163 139 39 39 72 79 72
88 0 9 7 22 15 29 8 7 15 19 15 27 0 7 9 23 20 35 11 12 23 38 26 57 4 20 13
45 20 56 9 12 14 46 14 87 0 37 5 70 10 73 6 3 10 30 10 60 0 30 -4 57 -10 60
-5 3 -10 30 -10 59 0 30 -6 60 -15 72 -8 10 -15 31 -15 45 0 14 -7 34 -15 45
-8 10 -15 26 -15 35 0 9 -7 22 -15 29 -8 7 -15 19 -15 27 0 14 -9 26 -62 84
-10 10 -18 24 -18 29 0 6 -7 10 -15 10 -8 0 -15 4 -15 8 0 8 -31 40 -78 80
-26 24 -81 52 -98 52 -8 0 -17 7 -20 15 -4 8 -16 15 -28 15 -11 0 -30 7 -40
15 -11 8 -32 15 -46 15 -14 0 -32 6 -38 13 -13 12 -248 20 -322 10z"/>
<path d="M5900 5560 l0 -240 240 0 240 0 0 240 0 240 -240 0 -240 0 0 -240z"/>
<path d="M4891 1797 c-35 -21 -50 -55 -51 -116 l0 -53 -277 2 c-153 2 -288 2
-300 1 -35 -2 -63 -36 -63 -76 0 -22 8 -43 20 -55 19 -19 33 -20 320 -20 l300
0 0 -44 0 -43 -142 -6 c-168 -6 -212 -17 -255 -63 -41 -44 -45 -80 -41 -361 3
-253 5 -258 91 -302 46 -23 57 -23 345 -28 451 -7 562 7 614 80 18 25 22 50
29 162 4 73 4 197 0 276 l-8 142 -36 33 c-48 45 -90 55 -249 61 l-138 6 0 43
0 44 295 0 296 0 24 25 c32 31 32 66 1 102 l-24 28 -296 -3 -296 -4 0 61 c0
48 -5 65 -23 86 -27 32 -98 43 -136 22z m378 -561 c12 -11 21 -30 21 -43 l0
-23 -355 0 c-293 0 -355 2 -355 14 0 24 40 65 68 69 15 3 156 4 313 3 267 -1
288 -2 308 -20z m29 -218 l-3 -43 -357 -3 -358 -2 0 45 0 45 361 0 360 0 -3
-42z m-8 -180 c-1 -62 -32 -71 -276 -76 -279 -6 -379 2 -410 34 -13 13 -24 32
-24 44 0 20 4 20 355 20 l355 0 0 -22z"/>
<path d="M2399 1680 c-96 -17 -158 -64 -179 -138 -13 -49 -13 -245 1 -275 24
-53 108 -67 159 -27 23 17 25 27 30 124 5 93 8 109 28 128 l23 23 487 3 c268
2 506 0 530 -3 58 -9 73 -34 79 -137 6 -115 9 -126 43 -143 52 -27 113 -15
140 28 19 30 26 196 11 262 -14 62 -53 108 -118 138 -48 22 -54 22 -618 24
-313 0 -591 -2 -616 -7z"/>
<path d="M2691 1473 c-17 -14 -28 -46 -46 -130 -34 -154 -70 -280 -111 -383
-49 -125 -44 -161 25 -180 60 -16 110 4 139 58 l23 42 219 0 c213 0 265 -6
282 -33 4 -7 8 -45 8 -84 l0 -72 -521 -3 -521 -3 -24 -28 c-33 -39 -31 -81 5
-118 l29 -29 497 0 496 0 -7 -22 c-27 -88 -101 -176 -177 -208 -73 -32 -174
-31 -294 4 -116 33 -135 33 -175 -3 -27 -24 -33 -36 -33 -71 0 -70 42 -95 215
-126 146 -26 302 -9 408 45 101 52 201 179 244 313 l22 67 192 3 c169 3 194 5
212 21 42 39 28 127 -23 147 -15 6 -100 10 -191 10 l-164 0 6 88 c8 109 -6
165 -51 208 -50 47 -96 54 -365 54 l-242 0 8 32 c3 18 12 51 18 73 l12 40 294
5 c301 5 330 9 344 46 13 34 6 75 -19 99 l-24 25 -276 0 -275 0 0 34 c0 48 -8
65 -41 81 -38 20 -92 19 -118 -2z"/>
<path d="M4120 530 c-28 -28 -27 -91 1 -116 20 -18 37 -19 272 -15 225 3 250
2 239 -12 -26 -31 -187 -100 -296 -127 -134 -34 -144 -37 -156 -61 -20 -36
-11 -79 21 -111 29 -29 33 -30 88 -25 71 8 206 54 326 112 123 59 181 100 193
135 6 15 9 30 8 32 -2 1 -6 15 -10 31 l-6 27 139 0 140 0 -9 -31 c-5 -17 -5
-40 0 -54 26 -68 370 -228 522 -242 53 -5 59 -4 87 25 56 56 36 142 -36 157
-116 24 -237 61 -309 94 -46 22 -84 43 -84 47 0 3 110 3 244 -1 l245 -7 25 25
c32 32 34 74 5 111 l-20 26 -805 0 c-791 0 -804 0 -824 -20z"/>
</g>
</svg>
