<?xml version="1.0" standalone="no"?>
<!DOCTYPE svg PUBLIC "-//W3C//DTD SVG 20010904//EN"
 "http://www.w3.org/TR/2001/REC-SVG-20010904/DTD/svg10.dtd">
<svg version="1.0" xmlns="http://www.w3.org/2000/svg"
 width="788.000000pt" height="632.000000pt" viewBox="0 0 788.000000 632.000000"
 preserveAspectRatio="xMidYMid meet">

<g transform="translate(0.000000,632.000000) scale(0.100000,-0.100000)"
fill="#000000" stroke="none">
<path d="M5818 5256 c-1087 -1087 -1019 -1012 -1034 -1140 -4 -31 -10 -56 -14
-56 -4 0 -11 -26 -15 -57 -4 -32 -10 -62 -15 -68 -4 -5 -10 -38 -13 -72 -4
-35 -11 -71 -16 -80 -6 -10 -13 -44 -16 -75 -4 -32 -11 -58 -16 -58 -5 0 -9
-29 -9 -64 0 -39 -5 -70 -13 -78 -7 -7 -18 -42 -25 -78 -7 -36 -16 -85 -21
-110 -5 -27 -5 -52 1 -63 8 -16 11 -16 24 -2 11 10 35 15 80 15 35 0 64 4 64
9 0 4 27 11 60 15 33 4 62 11 65 15 3 5 36 12 75 16 38 4 70 11 70 15 0 5 30
12 68 15 37 4 72 11 77 15 6 4 36 10 69 14 32 4 64 10 70 14 11 7 86 23 205
44 l64 11 1011 1011 1012 1011 -387 386 c-213 212 -394 389 -403 392 -11 4
-298 -277 -1018 -997z m1096 555 c38 -37 73 -76 78 -85 7 -13 -8 -35 -74 -105
-46 -49 -89 -89 -95 -90 -7 0 -13 -4 -13 -9 0 -11 -160 -172 -171 -172 -5 0
-9 -4 -9 -8 0 -9 -271 -282 -280 -282 -3 0 -14 -12 -24 -28 -11 -15 -45 -49
-77 -77 -31 -27 -58 -53 -58 -56 -2 -10 -774 -779 -783 -779 -4 0 -8 -4 -8 -8
0 -17 -115 -122 -133 -122 -9 0 -51 35 -93 77 -58 58 -74 81 -70 97 8 33 1697
1716 1721 1716 13 0 49 -28 89 -69z m180 -183 c44 -31 136 -135 136 -153 0 -9
-153 -169 -340 -356 -187 -187 -340 -344 -340 -349 0 -6 -4 -10 -9 -10 -13 0
-461 -448 -461 -460 0 -6 -4 -10 -9 -10 -6 0 -134 -124 -286 -276 -274 -273
-277 -276 -297 -257 -73 64 -148 150 -148 168 0 15 259 280 843 863 463 464
849 847 857 852 20 13 19 13 54 -12z m-1761 -1815 c48 -48 87 -93 87 -99 0
-21 -29 -36 -87 -45 -147 -22 -212 -35 -219 -41 -16 -17 -51 -6 -85 26 -48 44
-62 81 -49 126 5 19 10 52 10 73 0 21 7 45 15 53 9 9 15 34 15 59 0 27 8 58
21 79 l21 36 91 -90 c51 -49 131 -129 180 -177z"/>
<path d="M2290 6051 c-69 -4 -130 -9 -135 -13 -6 -3 -55 -11 -110 -18 -55 -6
-104 -15 -109 -20 -6 -6 -38 -10 -73 -10 -47 0 -65 -4 -69 -15 -4 -10 -21 -15
-54 -15 -30 0 -52 -6 -60 -15 -7 -8 -28 -15 -47 -15 -18 0 -50 -7 -70 -15 -19
-8 -44 -15 -53 -15 -10 0 -31 -6 -47 -14 -46 -24 -100 -46 -112 -46 -13 0
-151 -91 -151 -101 0 -4 -11 -10 -25 -13 -14 -4 -25 -11 -25 -16 0 -6 -4 -10
-10 -10 -12 0 -80 -68 -80 -80 0 -6 -4 -10 -9 -10 -11 0 -51 -66 -51 -84 0 -8
-6 -19 -14 -25 -8 -7 -17 -30 -21 -52 -4 -21 -11 -41 -16 -45 -5 -3 -9 -18 -9
-33 0 -16 -7 -45 -15 -64 -8 -20 -15 -50 -15 -67 0 -18 -6 -33 -15 -36 -10 -4
-15 -20 -15 -44 0 -24 -5 -40 -15 -44 -11 -4 -15 -21 -15 -61 0 -30 -4 -55
-10 -55 -5 0 -12 -17 -16 -37 -4 -21 -12 -44 -18 -52 -6 -7 -12 -33 -13 -56
-2 -24 -10 -56 -18 -71 -8 -16 -15 -37 -15 -47 0 -9 -4 -25 -9 -35 -6 -9 -13
-34 -16 -54 -3 -21 -10 -38 -15 -38 -4 0 -11 -22 -15 -50 -4 -27 -11 -52 -16
-56 -5 -3 -9 -17 -9 -32 0 -15 -6 -39 -13 -53 -8 -14 -17 -44 -21 -68 -3 -23
-10 -50 -16 -59 -8 -17 -21 -61 -42 -152 -5 -25 -14 -49 -19 -54 -5 -6 -9 -20
-9 -32 0 -12 -7 -38 -15 -57 -8 -20 -15 -49 -15 -65 0 -16 -7 -35 -15 -42 -8
-7 -15 -26 -15 -42 0 -16 -5 -39 -11 -50 -13 -24 -38 -115 -46 -168 -3 -19
-12 -44 -19 -55 -8 -11 -14 -36 -14 -56 0 -20 -7 -42 -15 -49 -9 -7 -15 -29
-15 -51 0 -21 -4 -41 -10 -44 -5 -3 -12 -28 -16 -55 -4 -28 -10 -50 -15 -50
-4 0 -11 -17 -14 -37 -4 -21 -10 -47 -15 -58 -5 -11 -12 -40 -16 -65 -3 -25
-11 -48 -16 -51 -5 -3 -12 -25 -15 -48 -3 -22 -9 -41 -14 -41 -4 0 -11 -16
-15 -37 -4 -20 -13 -48 -20 -62 -8 -14 -14 -36 -14 -48 0 -13 -4 -23 -9 -23
-4 0 -11 -27 -15 -60 -4 -33 -11 -60 -16 -60 -4 0 -11 -34 -15 -75 -4 -41 -11
-75 -16 -75 -5 0 -9 -51 -9 -114 0 -92 3 -115 15 -120 9 -3 15 -18 15 -40 0
-19 4 -37 9 -41 6 -3 20 -26 33 -51 12 -26 32 -54 44 -63 12 -9 24 -26 28 -38
4 -12 15 -24 24 -27 9 -3 29 -17 43 -30 30 -28 109 -66 136 -66 11 0 25 -6 32
-13 9 -8 56 -12 169 -11 128 0 162 3 187 17 17 9 40 17 52 17 12 0 24 4 27 9
4 5 24 12 46 16 22 4 40 10 40 14 0 8 84 38 135 47 22 4 43 11 46 16 3 5 25
12 48 15 22 3 41 9 41 14 0 4 17 11 38 15 20 4 42 10 47 14 6 4 32 10 58 14
27 3 54 9 60 13 19 13 126 34 212 42 44 5 111 14 149 21 83 15 470 10 501 -7
11 -6 59 -13 105 -14 47 -2 94 -9 105 -16 11 -7 34 -13 51 -13 17 0 54 -6 80
-14 69 -20 151 -37 209 -43 27 -3 59 -11 70 -19 11 -8 36 -14 56 -14 20 0 42
-7 49 -15 7 -8 23 -15 37 -15 23 0 133 -49 160 -72 7 -6 13 -20 13 -32 1 -11
10 -32 21 -46 21 -25 23 -25 238 -32 119 -4 242 -10 273 -13 54 -6 60 -5 98
25 25 20 40 40 40 54 0 32 77 86 124 86 12 0 31 7 42 15 10 8 31 15 45 15 14
0 34 7 45 15 10 8 28 15 39 15 11 0 33 7 49 15 15 8 42 15 60 15 17 0 44 7 60
15 15 8 44 15 63 15 19 0 46 6 61 14 15 7 57 16 94 19 37 3 75 10 85 16 55 29
645 48 712 22 14 -5 62 -12 107 -14 45 -2 87 -8 95 -13 8 -4 40 -11 73 -15 32
-4 61 -12 65 -17 3 -6 32 -13 64 -17 31 -4 60 -11 63 -16 3 -5 18 -9 33 -9 16
0 42 -7 57 -15 16 -8 38 -15 49 -15 11 0 29 -7 39 -15 11 -8 29 -15 40 -15 12
0 30 -7 40 -15 11 -8 32 -15 47 -15 14 0 32 -7 39 -15 7 -8 21 -15 31 -15 10
0 20 -4 23 -9 3 -4 29 -11 58 -15 29 -4 59 -13 67 -19 19 -16 322 -17 342 -1
8 6 31 14 52 18 20 4 37 11 37 16 0 5 9 11 19 15 11 3 49 36 85 74 106 108
154 226 163 403 3 69 1 92 -11 110 -9 12 -16 37 -16 54 0 17 -7 48 -15 67 -8
20 -15 49 -15 65 0 16 -7 35 -15 42 -8 7 -15 27 -15 45 0 18 -7 38 -15 45 -10
8 -15 30 -15 61 0 27 -4 49 -9 49 -6 0 -13 20 -16 45 -4 24 -13 50 -21 56 -8
7 -14 30 -14 55 0 23 -4 46 -10 49 -5 3 -10 18 -10 33 0 15 -6 36 -14 47 -7
11 -16 41 -20 68 -4 26 -14 59 -22 75 -7 15 -14 37 -14 49 0 12 -4 24 -9 27
-5 3 -12 31 -16 61 -3 30 -10 55 -14 55 -5 0 -11 19 -14 41 -3 23 -10 45 -15
48 -5 3 -12 32 -16 64 -4 31 -12 57 -17 57 -5 0 -9 15 -9 34 0 18 -6 39 -14
45 -7 6 -16 34 -19 63 -4 28 -11 56 -17 62 -5 5 -10 27 -10 47 0 24 -5 39 -15
43 -9 3 -15 19 -15 41 0 43 -15 75 -35 75 -8 0 -69 -55 -136 -122 l-121 -123
6 -59 c3 -32 10 -64 15 -70 4 -6 11 -33 15 -60 3 -27 10 -54 15 -60 5 -6 12
-35 16 -63 4 -29 10 -53 15 -53 4 0 10 -27 14 -60 4 -33 11 -60 16 -60 6 0 10
-17 10 -37 0 -21 7 -51 15 -67 8 -15 15 -40 15 -55 1 -14 7 -37 15 -51 8 -14
14 -43 15 -66 0 -22 4 -44 10 -50 5 -5 13 -32 16 -59 4 -28 11 -53 17 -56 5
-4 12 -28 14 -55 3 -27 10 -55 16 -62 16 -20 15 -224 0 -229 -7 -3 -13 -9 -13
-15 0 -25 -72 -80 -111 -85 -21 -3 -39 -10 -39 -14 0 -14 -45 -10 -76 6 -16 8
-42 15 -57 15 -16 0 -35 7 -43 15 -9 8 -24 15 -35 15 -10 0 -19 4 -19 9 0 5
-20 12 -45 15 -25 4 -45 11 -45 16 0 5 -17 12 -37 16 -21 4 -42 10 -48 14 -5
4 -36 11 -67 14 -32 4 -58 11 -58 16 0 5 -17 12 -37 15 -21 4 -47 10 -58 15
-21 10 -109 25 -240 41 -44 6 -94 14 -111 20 -40 12 -485 11 -549 -2 -27 -6
-89 -14 -137 -19 -48 -5 -96 -13 -107 -19 -11 -6 -36 -11 -56 -11 -20 0 -43
-7 -51 -15 -10 -9 -34 -15 -64 -15 -33 0 -50 -5 -54 -15 -3 -10 -19 -15 -45
-15 -22 0 -41 -5 -43 -10 -2 -6 -21 -13 -43 -17 -22 -3 -42 -9 -45 -13 -10
-13 -74 -40 -95 -40 -13 0 -25 -7 -29 -15 -3 -8 -14 -15 -25 -15 -11 0 -24 -6
-28 -12 -9 -15 -69 -48 -86 -48 -6 0 -18 -7 -27 -15 -10 -9 -39 -17 -68 -18
-42 -2 -53 2 -71 23 -20 24 -20 34 -21 466 0 307 -3 443 -11 451 -8 8 -13 244
-17 797 -3 433 -9 789 -14 792 -4 3 -8 129 -8 279 l0 275 25 6 c14 3 25 10 25
14 0 5 20 12 45 16 25 3 45 10 45 14 0 4 20 11 45 14 25 4 45 11 45 17 0 5 15
9 34 9 19 0 41 6 48 14 8 7 36 16 63 21 28 4 55 10 60 13 16 11 151 32 285 44
237 22 661 9 754 -22 16 -6 46 -10 66 -10 21 0 54 -7 73 -15 20 -8 54 -15 74
-15 21 0 48 -7 59 -15 12 -7 41 -15 65 -16 24 -1 53 -8 64 -16 11 -7 32 -13
47 -13 15 0 30 -5 33 -10 4 -6 21 -16 38 -24 18 -7 43 -23 56 -35 13 -11 32
-21 41 -21 19 0 152 125 162 152 4 9 1 21 -5 26 -26 20 -167 92 -182 92 -8 0
-15 4 -15 10 0 5 -18 13 -40 16 -22 4 -40 10 -40 14 0 5 -19 11 -42 15 -24 4
-45 10 -48 14 -10 13 -77 34 -140 44 -36 5 -67 13 -70 17 -7 9 -114 29 -215
40 -44 4 -102 14 -130 21 -35 8 -154 12 -395 12 -286 1 -359 -2 -425 -16 -44
-9 -96 -17 -115 -17 -19 0 -53 -7 -75 -15 -22 -8 -59 -14 -81 -15 -23 0 -55
-7 -70 -15 -16 -8 -42 -15 -58 -15 -16 0 -37 -7 -45 -14 -9 -8 -37 -16 -61
-17 -25 -1 -54 -8 -65 -16 -11 -7 -38 -13 -60 -13 -23 0 -47 -6 -53 -12 -10
-10 -17 -10 -32 0 -11 6 -26 12 -35 12 -8 0 -29 6 -47 14 -64 26 -104 38 -158
47 -30 5 -64 13 -75 19 -11 5 -47 14 -80 20 -283 52 -546 67 -895 51z m400
-252 c52 -6 122 -15 155 -21 33 -6 89 -14 125 -18 36 -4 79 -12 95 -18 17 -6
51 -13 77 -17 26 -3 50 -10 53 -16 4 -5 21 -9 38 -9 39 0 129 -30 140 -47 4
-7 16 -13 27 -13 10 0 28 -13 40 -29 20 -29 20 -37 16 -338 -6 -354 -35 -1839
-41 -2078 -3 -88 -5 -267 -5 -397 0 -228 -1 -239 -21 -259 -18 -18 -28 -20
-67 -14 -26 3 -52 13 -58 21 -6 8 -20 14 -31 14 -11 0 -28 10 -39 21 -22 25
-114 69 -143 69 -10 0 -21 5 -23 11 -2 5 -22 13 -46 16 -23 3 -42 10 -42 14 0
5 -6 9 -12 9 -7 0 -25 6 -39 14 -14 7 -47 16 -72 20 -26 4 -49 11 -52 15 -2 5
-28 11 -57 15 -29 4 -58 12 -64 17 -7 6 -43 14 -81 19 -37 5 -133 19 -213 30
-124 18 -178 21 -372 17 -130 -2 -233 -9 -240 -14 -7 -6 -47 -13 -90 -16 -42
-3 -85 -10 -96 -16 -12 -6 -43 -11 -69 -11 -28 0 -58 -6 -69 -15 -10 -8 -38
-15 -60 -15 -24 0 -47 -6 -54 -15 -7 -9 -29 -15 -51 -15 -22 0 -39 -4 -39 -10
0 -5 -11 -10 -25 -10 -14 0 -42 -9 -62 -20 -21 -11 -45 -20 -55 -20 -9 0 -38
-11 -64 -25 -28 -15 -72 -27 -110 -31 -36 -4 -67 -11 -70 -15 -8 -14 -44 -10
-60 6 -9 8 -25 15 -36 15 -25 0 -106 82 -114 117 -9 36 1 189 13 205 6 7 14
33 18 58 4 25 11 50 15 55 4 6 12 35 18 65 18 91 33 154 42 175 5 11 12 40 16
65 3 25 10 50 14 55 4 6 11 31 14 57 4 26 11 50 15 53 5 2 12 29 16 60 3 30
10 57 14 60 5 2 11 28 15 57 4 29 11 55 17 58 5 3 10 30 11 59 1 29 8 57 15
63 7 6 13 30 13 53 0 26 6 48 15 55 8 7 15 27 15 44 1 17 7 49 15 71 8 22 15
56 15 76 0 20 7 42 15 49 9 8 15 30 15 60 0 30 6 52 15 60 8 7 15 27 15 46 0
18 4 35 9 38 5 3 12 30 16 61 3 30 10 57 15 60 5 3 12 30 15 60 4 31 11 58 16
61 5 3 9 21 9 41 0 19 6 49 14 66 8 18 17 53 21 80 3 26 10 47 15 47 4 0 11
24 15 53 4 28 11 57 15 62 4 6 11 33 15 60 4 28 10 55 15 60 4 6 11 33 15 60
4 28 10 55 15 60 4 6 11 31 14 57 4 26 11 50 17 53 5 4 9 21 9 39 0 19 7 39
15 46 8 7 15 20 15 30 0 9 21 36 48 59 65 57 70 61 80 61 5 0 15 6 21 14 7 8
27 17 46 20 19 4 35 11 35 16 0 5 17 12 38 15 20 3 45 10 54 16 10 5 27 9 38
9 12 0 33 6 48 14 15 7 55 17 90 21 34 4 62 10 62 14 0 5 38 11 85 14 46 3 93
10 103 16 9 5 65 12 122 16 58 3 137 10 175 15 77 9 207 5 355 -11z"/>
<path d="M2448 1794 c-31 -16 -37 -33 -40 -114 l-3 -55 -114 -1 c-111 -1 -115
-1 -138 -28 -31 -37 -30 -79 3 -105 23 -18 41 -21 140 -21 l114 0 0 -60 0 -60
-143 0 c-115 0 -147 -3 -165 -16 -50 -35 -50 -104 -1 -129 23 -12 91 -15 388
-15 246 0 368 4 385 11 53 25 57 110 5 136 -15 8 -71 13 -156 13 l-133 0 0 60
0 60 113 0 c100 0 116 2 135 20 29 28 30 90 2 115 -18 16 -38 19 -133 19
l-112 1 -3 67 c-3 61 -6 69 -33 92 -34 29 -71 32 -111 10z"/>
<path d="M6858 1780 l-31 -31 8 -129 7 -130 -299 0 c-447 -1 -435 10 -434
-375 2 -421 -27 -592 -142 -821 -57 -115 -58 -142 -4 -174 87 -53 157 2 234
183 56 133 102 357 103 498 0 31 3 77 6 103 l7 48 123 -4 c159 -4 159 -4 158
-131 -1 -111 -15 -158 -57 -193 -30 -25 -36 -26 -112 -21 -95 6 -101 4 -120
-33 -23 -44 -19 -94 9 -127 22 -26 31 -28 109 -31 159 -7 260 45 319 165 l33
68 0 176 0 177 -31 39 c-58 71 -78 78 -266 82 l-168 3 0 73 c0 68 2 75 26 94
25 20 39 21 273 21 l247 0 17 -137 c20 -160 58 -351 94 -473 14 -47 27 -93 30
-102 7 -25 -133 -162 -232 -226 -43 -29 -122 -68 -175 -89 -120 -46 -140 -63
-140 -120 0 -59 33 -93 88 -93 109 0 324 117 474 258 65 62 72 65 82 48 111
-190 208 -275 314 -276 112 0 216 102 272 268 20 62 20 65 3 100 -25 51 -80
72 -127 49 -28 -13 -39 -28 -62 -87 -15 -39 -38 -82 -51 -96 -22 -24 -24 -24
-53 -9 -34 18 -109 114 -147 188 -21 43 -23 51 -10 65 8 10 38 57 66 105 106
182 181 350 181 407 0 57 -69 103 -138 92 -27 -4 -55 -46 -78 -117 -18 -56
-120 -275 -127 -275 -16 0 -86 403 -87 498 l0 22 251 0 c141 0 258 4 268 10
27 14 44 64 37 105 -12 63 -21 65 -303 65 -138 0 -254 4 -257 8 -3 5 -8 66
-12 137 -6 116 -9 131 -30 152 -36 36 -106 32 -146 -7z"/>
<path d="M7120 1778 c-29 -16 -45 -55 -36 -91 4 -18 25 -36 70 -61 35 -19 87
-54 117 -76 66 -49 99 -52 141 -10 26 27 30 36 25 68 -8 47 -46 80 -152 133
-94 46 -131 54 -165 37z"/>
<path d="M4934 1769 c-37 -10 -51 -36 -94 -174 -55 -177 -164 -382 -287 -543
-41 -54 -44 -102 -8 -137 35 -36 85 -34 129 5 37 33 128 163 195 278 39 67 44
72 76 72 l35 0 0 -575 0 -576 26 -24 c36 -34 93 -34 131 -1 l28 24 3 191 3
191 225 0 225 0 24 25 c17 17 25 35 25 60 0 87 -25 95 -291 95 l-209 0 0 105
0 105 218 0 c215 0 219 0 240 23 31 33 30 96 -1 125 -22 21 -31 22 -240 22
l-217 0 0 105 0 105 259 0 c246 0 260 1 285 21 35 28 37 95 3 127 -23 22 -28
22 -368 22 -190 0 -348 2 -351 5 -3 3 12 55 33 116 22 61 39 119 39 129 0 27
-40 69 -75 79 -16 4 -44 4 -61 0z"/>
<path d="M4485 1744 c-14 -15 -25 -32 -25 -38 0 -24 -121 -256 -177 -341 -71
-108 -141 -192 -245 -298 -86 -88 -97 -120 -58 -170 53 -67 131 -38 255 95
l76 83 -5 -95 c-3 -52 -9 -267 -12 -478 l-7 -383 23 -24 c45 -48 138 -37 159
18 5 13 14 297 21 632 l12 610 44 75 c58 100 114 224 114 250 0 12 -15 37 -34
56 -45 45 -104 48 -141 8z"/>
<path d="M3078 1710 c-52 -16 -89 -45 -111 -90 l-22 -45 -3 -717 c-3 -528 0
-722 8 -738 31 -58 129 -58 163 -1 17 29 18 29 48 14 51 -26 97 -5 195 89 l83
80 76 -66 c88 -77 140 -106 190 -106 62 0 110 69 89 129 -6 16 -40 46 -94 82
-47 31 -100 70 -119 86 l-34 29 45 110 c86 204 122 418 84 491 -29 58 -79 68
-329 68 l-217 0 0 196 c0 153 3 199 14 215 13 17 28 19 176 19 150 0 163 -1
177 -20 21 -28 10 -111 -18 -142 -26 -26 -60 -29 -138 -11 -47 10 -54 10 -78
-8 -56 -42 -48 -110 17 -148 30 -18 52 -21 145 -21 94 0 116 3 152 22 74 40
110 115 120 250 9 131 -31 207 -125 233 -43 12 -454 12 -494 0z m422 -755 c10
-12 9 -33 -4 -105 -17 -95 -55 -220 -67 -220 -9 0 -62 129 -83 202 -24 84 -77
103 -138 49 l-32 -28 11 -60 c14 -75 63 -199 109 -276 26 -45 32 -63 24 -77
-13 -24 -120 -120 -159 -143 l-31 -18 0 340 0 340 93 4 c239 8 264 7 277 -8z"/>
<path d="M615 1653 c-56 -12 -90 -28 -121 -56 -68 -58 -68 -61 -74 -382 -3
-159 -3 -429 0 -600 l5 -310 28 -48 c32 -53 85 -92 149 -107 71 -16 675 -13
732 4 67 20 110 58 143 123 l28 58 0 565 c0 632 2 614 -70 686 -71 70 -96 74
-474 73 -179 -1 -335 -3 -346 -6z m640 -183 c48 -24 54 -49 56 -245 l2 -180
-354 0 -354 0 -3 93 c-4 147 11 290 35 313 31 31 94 38 348 36 191 -2 246 -5
270 -17z m56 -825 c-4 -245 -10 -273 -63 -302 -29 -16 -60 -18 -283 -18 -270
0 -312 7 -342 51 -12 20 -16 66 -21 243 -3 121 -2 226 1 235 6 15 43 16 359
14 l353 -3 -4 -220z"/>
<path d="M2651 1167 c-16 -8 -35 -36 -53 -80 -16 -37 -42 -90 -58 -116 -17
-27 -30 -53 -30 -60 0 -7 -23 -11 -67 -11 -66 1 -67 1 -41 16 58 31 63 89 16
160 -41 61 -93 97 -128 89 -34 -8 -74 -38 -78 -59 -4 -18 80 -161 111 -188 18
-17 15 -18 -90 -18 -83 0 -114 -4 -131 -16 -56 -39 -48 -114 14 -134 19 -7 87
-10 161 -9 l128 2 3 -66 3 -67 -121 0 c-121 0 -152 -7 -177 -39 -20 -26 -15
-70 12 -96 23 -24 29 -25 155 -25 l130 0 0 -169 0 -170 26 -20 c37 -29 94 -28
128 4 l26 24 0 166 0 165 124 0 c110 0 126 2 150 21 20 16 26 29 26 59 0 30
-6 43 -26 59 -24 19 -40 21 -151 21 l-124 0 3 67 3 66 126 -2 c81 -2 134 2
151 10 48 21 60 98 21 131 -10 8 -55 15 -109 18 l-94 5 39 65 c44 74 56 109
47 144 -11 43 -83 74 -125 53z"/>
</g>
</svg>
