<?xml version="1.0" standalone="no"?>
<!DOCTYPE svg PUBLIC "-//W3C//DTD SVG 20010904//EN"
 "http://www.w3.org/TR/2001/REC-SVG-20010904/DTD/svg10.dtd">
<svg version="1.0" xmlns="http://www.w3.org/2000/svg"
 width="788.000000pt" height="792.000000pt" viewBox="0 0 788.000000 792.000000"
 preserveAspectRatio="xMidYMid meet">

<g transform="translate(0.000000,792.000000) scale(0.100000,-0.100000)"
fill="#000000" stroke="none">
<path d="M1860 7780 c-52 -3 -102 -9 -110 -13 -8 -4 -49 -11 -90 -17 -124 -15
-204 -29 -225 -39 -11 -5 -47 -13 -80 -19 -66 -10 -137 -30 -350 -98 -77 -24
-147 -44 -155 -44 -8 -1 -24 -7 -34 -15 -11 -8 -31 -15 -45 -15 -14 0 -35 -7
-45 -15 -11 -8 -28 -15 -38 -15 -10 0 -18 -4 -18 -9 0 -5 -26 -17 -57 -27 -31
-10 -64 -25 -73 -33 -8 -9 -33 -25 -54 -36 -22 -11 -52 -31 -67 -45 -43 -39
-61 -53 -90 -75 -15 -11 -44 -43 -64 -70 -21 -28 -44 -54 -52 -58 -7 -4 -13
-14 -13 -21 0 -8 -7 -19 -15 -26 -8 -7 -15 -21 -15 -31 0 -11 -4 -19 -10 -19
-5 0 -12 -16 -16 -36 -4 -19 -13 -38 -20 -41 -8 -3 -14 -15 -14 -27 0 -12 -6
-28 -12 -34 -10 -10 -14 -435 -16 -2040 -2 -1115 0 -2051 3 -2079 l6 -53 259
0 258 0 -29 31 -29 31 0 1958 c0 1076 3 1985 7 2020 6 58 9 66 60 117 29 30
53 59 53 64 0 5 7 9 15 9 8 0 15 5 15 10 0 6 10 15 23 20 12 6 36 19 52 30 17
10 47 24 69 30 21 6 63 22 92 36 29 13 61 24 71 24 11 0 28 7 39 15 10 8 31
15 47 15 15 0 27 4 27 10 0 5 17 12 38 15 50 8 143 34 165 46 23 12 92 28 182
41 39 5 78 14 87 19 10 5 56 13 103 18 47 6 90 13 95 16 41 25 616 21 730 -5
25 -6 81 -15 125 -20 143 -17 205 -28 218 -38 6 -6 35 -13 62 -17 28 -4 55
-11 60 -15 6 -4 34 -11 62 -15 29 -4 55 -11 59 -16 3 -5 20 -9 38 -9 19 0 39
-6 45 -14 6 -7 29 -16 51 -20 22 -3 40 -10 40 -15 0 -5 18 -12 40 -16 43 -7
96 -30 105 -46 4 -5 15 -9 25 -9 10 0 32 -7 49 -15 17 -8 45 -22 62 -30 17 -8
37 -15 44 -15 8 0 19 -9 25 -19 7 -13 10 -681 10 -2085 l0 -2066 129 0 c117 0
131 -2 162 -23 19 -12 38 -33 44 -45 8 -19 17 -22 70 -22 l60 0 -2 2097 c-2
1675 0 2103 10 2123 10 21 89 72 147 96 8 3 29 12 45 19 43 18 96 36 125 42
14 3 34 12 45 19 11 8 27 14 36 14 9 0 30 7 45 15 16 8 37 15 47 15 10 0 51
11 90 24 40 14 95 28 122 32 28 3 55 10 61 15 6 5 43 13 83 19 41 6 77 13 82
16 5 3 50 9 101 14 51 5 120 14 153 20 80 13 509 14 610 1 168 -23 375 -59
395 -70 9 -5 36 -12 60 -16 25 -4 50 -11 55 -15 6 -4 31 -11 57 -14 26 -4 50
-11 53 -17 4 -5 17 -9 30 -9 13 0 36 -7 52 -15 15 -8 45 -17 66 -20 20 -3 37
-10 37 -15 0 -6 10 -10 23 -10 12 -1 33 -7 47 -15 14 -8 35 -14 46 -15 12 0
27 -6 33 -14 6 -7 29 -16 51 -20 22 -3 40 -10 40 -15 0 -5 8 -12 18 -15 34
-13 72 -37 72 -47 0 -5 7 -9 15 -9 8 0 15 -7 15 -15 0 -8 4 -15 9 -15 17 0 81
-63 81 -80 0 -9 6 -22 13 -28 9 -10 12 -429 12 -2028 l0 -2016 -28 -24 -28
-24 260 0 260 0 6 33 c3 17 5 951 3 2074 -2 1617 -6 2045 -15 2055 -7 6 -13
24 -13 39 0 15 -4 30 -9 33 -5 4 -19 27 -31 54 -12 26 -26 54 -31 62 -5 8 -13
25 -19 38 -5 12 -14 22 -20 22 -5 0 -10 4 -10 9 0 6 -13 25 -30 43 -16 18 -30
38 -30 45 0 7 -6 13 -12 13 -7 0 -30 15 -50 33 -88 77 -101 87 -114 87 -8 0
-28 14 -44 30 -16 17 -35 30 -43 30 -7 0 -22 7 -33 15 -10 8 -28 15 -39 15
-11 0 -29 7 -39 15 -11 8 -30 15 -42 15 -12 0 -24 7 -28 15 -3 9 -18 15 -39
15 -19 0 -40 7 -47 15 -7 8 -24 15 -39 15 -14 1 -37 7 -51 15 -14 8 -35 14
-46 15 -12 0 -35 7 -50 15 -16 8 -38 15 -49 15 -11 0 -29 7 -39 15 -11 8 -36
15 -55 15 -20 1 -47 7 -61 15 -14 8 -37 14 -52 15 -15 0 -29 4 -33 9 -3 5 -31
12 -63 16 -31 3 -66 11 -77 16 -26 13 -111 27 -235 40 -52 5 -106 15 -119 22
-33 16 -657 16 -686 0 -12 -6 -66 -14 -120 -18 -55 -3 -116 -10 -135 -15 -88
-22 -140 -32 -203 -40 -38 -5 -74 -13 -80 -18 -7 -5 -32 -12 -57 -16 -54 -8
-105 -23 -143 -42 -16 -8 -41 -14 -55 -14 -15 0 -36 -7 -46 -15 -11 -8 -29
-15 -40 -15 -12 0 -34 -7 -50 -15 -15 -8 -38 -15 -50 -15 -11 0 -30 -7 -40
-15 -11 -8 -29 -15 -41 -15 -11 0 -60 -20 -108 -45 -48 -25 -96 -45 -107 -45
-10 0 -22 -5 -25 -10 -8 -14 -72 -40 -96 -40 -11 0 -27 4 -37 9 -9 5 -24 12
-32 15 -8 4 -35 17 -59 31 -24 14 -56 25 -71 25 -15 0 -33 7 -40 15 -7 8 -20
15 -30 15 -10 0 -20 7 -24 15 -3 8 -17 15 -32 15 -14 0 -38 6 -52 14 -15 8
-54 22 -87 31 -59 16 -109 34 -173 61 -18 8 -42 14 -52 14 -27 0 -137 29 -177
46 -17 8 -53 14 -80 14 -27 0 -54 5 -60 11 -7 7 -42 15 -80 20 -37 4 -124 15
-193 24 -257 34 -459 40 -730 25z"/>
<path d="M2067 3044 c-4 -4 -40 -9 -80 -10 -113 -3 -336 -24 -363 -34 -14 -6
-42 -10 -64 -10 -21 0 -51 -7 -66 -15 -16 -8 -49 -15 -74 -15 -25 -1 -56 -7
-70 -15 -14 -8 -36 -14 -49 -15 -31 0 -128 -28 -163 -46 -14 -8 -40 -14 -56
-14 -16 0 -43 -7 -58 -15 -16 -8 -37 -15 -47 -15 -9 0 -25 -4 -35 -9 -55 -27
-90 -41 -117 -47 -16 -4 -39 -13 -50 -20 -11 -8 -31 -14 -45 -14 -14 0 -32 -5
-40 -10 -10 -6 478 -10 1386 -10 l1401 0 11 24 c12 26 1 36 -39 36 -10 0 -19
4 -19 8 0 5 -20 14 -45 20 -25 7 -65 17 -90 24 -25 6 -45 15 -45 19 0 3 -20
10 -45 13 -25 4 -45 11 -45 15 0 5 -26 12 -57 16 -32 4 -62 10 -68 15 -5 4
-32 10 -60 13 -27 3 -51 10 -53 16 -2 6 -24 11 -48 11 -25 0 -61 7 -81 15 -19
8 -54 15 -77 15 -22 0 -76 7 -119 15 -43 8 -115 15 -160 15 -45 0 -100 5 -122
9 -59 14 -239 24 -248 15z"/>
<path d="M5598 3045 c-3 -4 -48 -8 -100 -10 -149 -5 -340 -23 -378 -34 -19 -6
-53 -11 -76 -11 -23 0 -61 -7 -84 -15 -23 -8 -57 -15 -75 -15 -18 0 -49 -7
-68 -15 -20 -8 -52 -15 -71 -15 -19 0 -37 -4 -40 -9 -4 -5 -29 -12 -57 -16
-28 -4 -63 -13 -77 -21 -15 -8 -38 -14 -52 -14 -14 0 -34 -7 -44 -15 -11 -8
-31 -15 -45 -15 -14 -1 -37 -7 -51 -15 -14 -8 -35 -14 -47 -15 -13 0 -23 -4
-23 -9 0 -5 -16 -12 -35 -15 -19 -4 -58 -18 -87 -31 l-53 -24 1453 0 c815 -1
1452 3 1452 8 0 4 -19 11 -42 14 -24 3 -44 11 -46 16 -2 6 -11 11 -21 11 -9 0
-26 6 -37 14 -11 8 -37 17 -57 21 -20 4 -37 11 -37 15 0 4 -19 10 -42 13 -24
3 -44 11 -46 16 -2 6 -18 11 -35 11 -18 0 -45 7 -60 15 -16 8 -51 17 -78 21
-27 4 -52 11 -55 15 -3 5 -19 9 -35 9 -16 0 -46 7 -66 15 -19 8 -52 15 -72 15
-20 0 -49 7 -65 15 -15 8 -45 15 -65 15 -20 0 -54 5 -76 11 -22 5 -101 14
-175 20 -74 5 -148 12 -165 14 -82 12 -161 16 -167 10z"/>
<path d="M3644 2776 c-3 -9 -12 -16 -20 -16 -7 0 -17 -7 -22 -15 -7 -14 -11
-14 -37 -1 -21 11 -32 12 -42 4 -21 -17 -15 -67 12 -93 24 -25 27 -25 193 -25
156 0 171 2 196 21 32 25 35 75 7 110 -18 23 -27 24 -150 27 -112 3 -132 1
-137 -12z"/>
<path d="M98 2678 c7 -7 12 -20 12 -29 0 -9 6 -19 14 -22 7 -3 16 -22 20 -41
4 -20 10 -36 14 -36 4 0 16 -20 27 -45 11 -25 22 -45 25 -45 10 0 80 -69 80
-79 0 -6 7 -11 15 -11 8 0 15 -4 15 -9 0 -5 14 -12 30 -16 17 -4 30 -10 30
-15 0 -4 12 -11 27 -15 15 -3 31 -11 34 -17 3 -5 26 -12 50 -15 24 -2 53 -9
65 -15 36 -17 285 10 292 31 2 6 14 11 26 11 12 0 31 6 42 14 11 8 37 18 59
22 21 4 50 13 64 20 28 15 217 75 366 117 112 32 246 57 350 67 44 3 103 12
131 19 62 15 400 10 524 -8 119 -16 247 -33 300 -38 25 -2 59 -11 77 -19 17
-8 46 -14 65 -14 18 0 42 -7 52 -15 11 -8 37 -15 57 -15 21 0 40 -4 44 -9 3
-6 26 -13 52 -17 25 -4 58 -13 72 -20 14 -8 36 -14 48 -14 12 0 34 -6 50 -14
47 -24 76 -35 111 -41 17 -4 32 -11 32 -15 0 -5 16 -12 36 -16 20 -4 62 -20
93 -35 31 -16 61 -29 68 -29 6 0 13 -3 15 -7 2 -5 26 -19 53 -33 28 -14 53
-29 57 -35 4 -6 71 -10 165 -10 l158 0 90 48 c49 26 95 47 102 47 12 0 34 9
73 32 8 4 22 11 30 14 8 3 29 12 45 20 17 7 45 17 63 20 18 4 35 11 38 15 3 5
13 9 22 9 9 0 30 7 46 15 15 8 35 15 43 15 8 0 29 6 46 14 30 14 64 22 176 47
24 5 49 13 55 18 6 4 34 11 63 14 28 3 60 10 70 15 26 14 139 31 278 43 66 5
133 14 149 19 48 16 402 12 466 -5 30 -8 82 -15 115 -15 33 -1 80 -5 105 -11
25 -5 63 -12 85 -15 22 -3 54 -12 72 -20 17 -8 44 -14 60 -14 15 -1 39 -7 53
-15 14 -8 41 -15 60 -15 19 0 46 -7 60 -15 14 -8 37 -14 52 -15 14 0 28 -5 30
-10 2 -6 21 -13 43 -17 22 -3 44 -12 48 -20 4 -7 21 -13 36 -13 16 0 42 -7 57
-15 16 -8 41 -15 57 -15 15 0 27 -4 27 -10 0 -5 6 -10 13 -10 7 0 29 -9 50
-20 20 -11 55 -20 77 -20 22 0 40 -5 40 -11 0 -12 126 -7 200 8 52 11 130 43
130 54 0 5 16 11 35 15 22 4 52 22 76 45 22 22 45 39 50 39 5 0 9 7 9 15 0 8
7 15 15 15 9 0 15 9 15 25 0 14 7 28 15 31 8 4 15 10 15 16 0 5 7 16 15 24 8
9 15 26 15 39 0 13 6 30 13 37 6 8 18 24 25 36 l12 22 -1834 0 -1834 0 -6 -25
c-4 -14 -21 -34 -39 -45 -28 -18 -50 -20 -202 -20 -187 0 -207 5 -240 57 l-20
32 -1695 1 c-1317 0 -1691 -3 -1682 -12z"/>
<path d="M2458 1954 c-31 -16 -37 -33 -40 -113 l-3 -54 -113 -1 c-112 -1 -114
-2 -138 -29 -29 -34 -31 -67 -5 -98 18 -22 27 -24 140 -27 l121 -4 0 -59 0
-59 -144 0 c-130 0 -146 -2 -170 -21 -20 -16 -26 -29 -26 -58 0 -73 -11 -71
422 -71 l385 0 21 23 c29 31 28 72 -3 102 -23 24 -29 25 -165 25 l-140 0 0 60
0 60 105 0 c57 0 115 5 129 11 35 17 52 61 36 99 -17 40 -61 53 -173 49 l-92
-4 -5 73 c-4 62 -9 77 -29 93 -28 23 -75 24 -113 3z"/>
<path d="M7080 1947 c-15 -7 -40 -43 -65 -92 -46 -90 -88 -154 -145 -220 -67
-77 -45 -145 46 -145 40 0 47 4 101 65 l58 65 268 0 268 0 24 25 c45 44 21
124 -37 125 -13 1 -112 0 -220 0 -127 0 -198 3 -198 9 0 6 9 28 21 50 11 22
18 49 15 59 -16 50 -90 82 -136 59z"/>
<path d="M4237 1910 c-53 -9 -114 -50 -126 -83 -16 -43 -21 -224 -23 -886 l-2
-674 23 -18 c31 -25 101 -25 132 0 21 17 25 30 30 118 4 54 7 288 8 521 l1
422 138 0 c248 1 349 26 378 95 10 25 14 81 14 211 0 207 -7 229 -79 272 -46
27 -48 27 -246 29 -110 1 -222 -2 -248 -7z m377 -150 c8 -8 17 -30 21 -47 l7
-33 -181 0 c-176 0 -181 1 -181 21 0 30 18 59 43 69 12 5 79 9 149 7 98 -1
131 -5 142 -17z m18 -250 c-2 -19 -8 -39 -13 -45 -6 -6 -82 -11 -174 -13
l-165 -3 0 51 0 50 178 -2 177 -3 -3 -35z"/>
<path d="M5073 1911 c-51 -13 -94 -44 -114 -81 -17 -30 -19 -58 -19 -213 0
-212 7 -234 79 -272 36 -19 41 -24 23 -25 -43 0 -59 -18 -92 -104 l-33 -86
-43 0 c-33 0 -44 4 -44 15 0 53 -99 165 -146 165 -38 0 -83 -27 -90 -55 -5
-18 3 -37 31 -74 l36 -50 -25 -6 c-14 -3 -37 -7 -51 -10 -14 -3 -40 -18 -58
-34 -32 -29 -32 -30 -35 -134 -5 -150 18 -185 131 -202 26 -4 47 -9 47 -12 0
-15 -45 -86 -71 -112 -41 -41 -71 -56 -166 -82 -87 -23 -103 -37 -103 -89 0
-49 33 -80 84 -80 54 0 180 45 243 87 114 76 179 196 142 264 -10 19 -8 20 38
17 l48 -3 1 -105 c1 -115 12 -150 55 -182 35 -26 89 -37 182 -38 74 0 77 -1
67 -19 -19 -36 -12 -96 13 -119 50 -47 239 -54 334 -12 58 26 88 53 116 105
l22 40 -3 699 c-3 680 -3 701 -23 732 -11 18 -40 43 -67 56 -44 22 -59 23
-262 25 -118 1 -229 -2 -247 -6z m385 -148 c11 -10 22 -33 26 -50 l6 -33 -186
0 -185 0 3 37 c4 55 28 63 184 63 111 0 135 -3 152 -17z m32 -263 l0 -50 -163
0 c-187 0 -207 6 -207 66 l0 34 185 0 185 0 0 -50z m-143 -190 l144 0 -3 -414
c-3 -401 -4 -415 -24 -442 -11 -15 -33 -31 -48 -35 -30 -8 -126 0 -126 10 0 4
15 15 34 25 45 24 75 81 78 146 2 46 -1 55 -25 76 -16 13 -41 24 -56 24 -41 0
-81 -35 -81 -71 0 -16 -9 -38 -19 -48 -24 -24 -99 -37 -138 -24 -27 9 -28 11
-31 95 l-3 85 56 7 c117 14 148 54 149 196 1 64 -3 93 -17 118 -19 35 -68 62
-112 62 -31 0 -31 5 -1 70 30 64 21 99 -29 121 -13 6 1 8 44 4 35 -3 129 -5
208 -5z m-273 -326 c22 -22 20 -70 -4 -94 -19 -19 -33 -20 -204 -20 -206 0
-216 3 -216 65 0 60 19 65 227 65 152 0 184 -3 197 -16z"/>
<path d="M6155 1906 c-43 -19 -75 -58 -86 -103 -12 -54 -11 -382 2 -442 13
-62 48 -95 119 -110 30 -7 167 -11 333 -11 319 0 330 2 335 62 5 59 -18 68
-171 68 l-128 0 3 33 3 32 86 11 c102 14 122 23 139 64 19 45 8 157 -17 182
-25 24 -80 37 -156 38 l-58 0 3 33 3 32 130 5 c72 3 136 9 143 13 20 14 15 85
-7 97 -31 16 -638 13 -676 -4z m253 -143 l3 -33 -90 0 c-80 0 -91 2 -91 18 1
41 24 51 115 49 l60 -2 3 -32z m230 -142 c8 -5 12 -21 10 -37 l-3 -29 -210 0
-210 0 -3 23 c-8 52 -7 52 205 52 109 0 204 -4 211 -9z m-228 -216 l0 -35 -78
0 c-83 0 -102 9 -102 47 0 22 3 23 90 23 l90 0 0 -35z"/>
<path d="M3175 1881 c-53 -4 -103 -14 -121 -24 -48 -25 -82 -72 -89 -122 -4
-24 -8 -360 -9 -745 l-1 -702 28 -24 c43 -37 91 -33 134 12 26 28 37 34 46 25
6 -6 27 -11 47 -11 46 0 107 39 184 118 l59 61 71 -66 c72 -66 149 -113 186
-113 29 0 77 27 90 49 5 11 10 36 10 55 0 40 -20 65 -72 92 -38 20 -135 93
-160 121 -17 18 -16 23 22 109 51 116 88 246 102 359 11 83 10 94 -8 131 -34
70 -63 78 -326 82 l-228 4 0 194 c0 178 2 196 19 213 25 25 108 35 230 28 108
-6 131 -21 131 -82 0 -96 -36 -121 -151 -104 -77 12 -80 12 -104 -11 -27 -25
-34 -75 -15 -109 34 -65 263 -77 358 -19 63 39 102 143 102 274 0 100 -32 155
-110 187 -42 18 -292 28 -425 18z m335 -766 c16 -19 6 -102 -26 -214 -36 -122
-37 -123 -67 -65 -14 27 -35 83 -47 124 -28 93 -42 110 -90 110 -37 0 -70 -24
-83 -62 -11 -32 33 -171 90 -287 l57 -114 -71 -66 c-39 -36 -84 -74 -102 -84
l-31 -18 0 339 c0 186 3 342 7 345 3 4 84 7 178 7 141 0 175 -3 185 -15z"/>
<path d="M615 1811 c-65 -16 -124 -62 -156 -121 -18 -33 -26 -1125 -9 -1205
20 -92 87 -156 179 -172 25 -4 192 -8 371 -8 364 0 375 2 446 67 81 75 79 57
79 703 l0 570 -25 45 c-29 52 -95 105 -148 120 -42 11 -689 12 -737 1z m654
-177 c25 -10 43 -25 49 -42 6 -15 12 -108 14 -207 l3 -180 -355 0 -355 0 3
185 c4 269 -10 259 354 259 203 1 255 -2 287 -15z m63 -827 c-4 -336 11 -322
-352 -321 -274 1 -315 8 -338 58 -10 20 -16 93 -20 257 l-5 229 359 -2 359 -3
-3 -218z"/>
<path d="M6960 1437 c-14 -7 -31 -26 -39 -42 -12 -25 -12 -32 0 -54 27 -48 44
-51 354 -51 250 0 294 2 313 16 51 35 48 109 -4 133 -37 16 -591 15 -624 -2z"/>
<path d="M2653 1325 c-12 -8 -29 -37 -37 -63 -9 -26 -34 -78 -56 -116 -22 -37
-40 -72 -40 -77 0 -5 -87 -9 -194 -9 -180 0 -195 -1 -220 -21 -20 -16 -26 -29
-26 -59 0 -63 19 -70 192 -70 l148 0 0 -70 0 -70 -127 0 c-138 -1 -154 -6
-173 -55 -12 -32 -7 -56 19 -79 16 -14 43 -18 147 -19 l129 -2 2 -160 c2 -95
8 -169 14 -182 18 -34 62 -48 109 -34 22 6 43 17 47 24 4 6 10 89 13 182 l5
170 129 2 c115 2 131 4 150 22 29 29 27 88 -3 112 -20 16 -41 19 -152 19
l-129 0 0 70 0 70 144 0 c144 0 145 0 165 26 26 33 27 65 2 95 -17 21 -30 25
-114 29 l-95 5 43 73 c64 108 64 144 3 182 -39 24 -66 25 -95 5z"/>
<path d="M2273 1315 c-60 -26 -61 -46 -2 -143 28 -48 57 -90 63 -94 38 -25
118 10 130 57 16 63 -84 196 -146 195 -7 -1 -27 -7 -45 -15z"/>
<path d="M6400 1178 c-53 -15 -98 -54 -110 -96 -8 -23 -10 -108 -8 -232 3
-187 4 -196 27 -229 32 -45 89 -68 189 -77 82 -7 82 -7 65 -26 -62 -69 -249
-131 -430 -144 -109 -8 -133 -23 -133 -83 0 -43 28 -75 73 -83 39 -7 211 10
282 28 187 49 331 121 377 191 19 30 24 78 8 88 -25 16 -5 25 55 25 l65 0 0
-82 c0 -112 16 -144 95 -183 l60 -30 205 0 c187 0 211 2 280 23 125 40 180
112 180 240 0 72 -28 102 -98 102 -63 0 -88 -23 -97 -87 -15 -106 -56 -127
-245 -128 -172 0 -190 8 -190 89 l0 53 100 6 c78 4 108 10 142 29 87 48 104
109 96 362 -5 163 -15 188 -91 229 -41 22 -49 22 -452 24 -254 1 -423 -2 -445
-9z m778 -126 c12 -7 22 -22 22 -32 0 -20 -9 -20 -370 -20 -380 0 -385 1 -362
37 18 29 63 32 372 30 235 -1 321 -5 338 -15z m32 -187 l0 -35 -380 0 -380 0
0 35 0 35 380 0 380 0 0 -35z m-10 -150 c0 -47 -20 -50 -360 -50 -173 0 -327
3 -342 8 -29 8 -53 41 -43 57 4 6 145 10 376 10 l369 0 0 -25z"/>
</g>
</svg>
