<?xml version="1.0" standalone="no"?>
<!DOCTYPE svg PUBLIC "-//W3C//DTD SVG 20010904//EN"
 "http://www.w3.org/TR/2001/REC-SVG-20010904/DTD/svg10.dtd">
<svg version="1.0" xmlns="http://www.w3.org/2000/svg"
 width="654.000000pt" height="738.000000pt" viewBox="0 0 654.000000 738.000000"
 preserveAspectRatio="xMidYMid meet">

<g transform="translate(0.000000,738.000000) scale(0.100000,-0.100000)"
fill="#000000" stroke="none">
<path d="M2202 5493 l3 -1788 212 -3 213 -2 5 22 c3 13 4 817 3 1788 l-3 1765
-218 3 -217 2 2 -1787z"/>
<path d="M2865 7268 c-3 -7 -4 -382 -3 -833 l3 -820 1062 -3 1062 -2 20 29
c12 16 21 36 21 45 0 23 -22 69 -42 87 -10 9 -18 21 -18 27 0 6 -10 23 -23 39
-12 15 -28 41 -35 56 -6 15 -19 30 -27 33 -8 4 -15 14 -15 23 0 10 -11 28 -25
41 -14 13 -25 29 -25 36 0 6 -11 22 -25 35 -13 13 -25 31 -25 40 0 8 -11 26
-25 39 -14 13 -25 28 -25 34 0 6 -11 24 -25 40 -14 16 -25 35 -25 42 0 8 -9
19 -20 26 -11 7 -20 18 -20 25 0 6 -10 24 -23 40 -30 38 -58 101 -48 108 5 2
12 21 15 40 4 19 11 35 16 35 6 0 10 5 10 10 0 6 5 16 10 23 18 21 140 197
140 202 0 3 19 33 43 66 23 33 48 70 56 82 8 12 47 72 86 132 40 61 77 119 83
131 13 24 6 61 -16 87 -14 16 -78 17 -1074 17 -838 0 -1060 -3 -1063 -12z"/>
<path d="M1436 4608 c-9 -12 -16 -28 -16 -35 0 -7 -4 -21 -9 -31 -5 -9 -22
-44 -37 -77 -16 -33 -32 -61 -36 -63 -5 -2 -8 -12 -8 -22 0 -10 -4 -21 -9 -25
-5 -3 -12 -19 -16 -35 -4 -16 -27 -72 -52 -122 -51 -106 -58 -120 -112 -248
-6 -14 -15 -32 -20 -40 -21 -36 -49 -97 -56 -120 -4 -14 -33 -80 -66 -147 -32
-67 -59 -126 -59 -130 0 -5 -11 -33 -25 -61 -14 -29 -25 -56 -25 -62 0 -5 -4
-10 -10 -10 -5 0 -10 -8 -10 -17 0 -10 -7 -27 -15 -37 -8 -11 -15 -30 -15 -43
0 -13 -4 -23 -10 -23 -5 0 -10 -8 -11 -17 0 -10 -9 -31 -20 -48 -10 -16 -22
-37 -25 -45 -3 -8 -17 -38 -30 -66 -13 -28 -24 -58 -24 -66 0 -9 -7 -21 -15
-28 -8 -7 -15 -18 -15 -24 0 -7 -13 -39 -30 -71 -16 -32 -30 -64 -30 -71 0 -6
-7 -17 -15 -24 -8 -7 -15 -25 -15 -41 0 -16 -4 -29 -8 -29 -9 0 -42 -70 -42
-88 0 -7 -4 -12 -10 -12 -5 0 -10 -5 -10 -12 0 -18 -33 -88 -42 -88 -4 0 -8
-13 -8 -29 0 -16 -7 -34 -15 -41 -8 -7 -15 -18 -15 -25 0 -12 -28 -75 -51
-115 -24 -41 -49 -101 -49 -114 0 -9 -4 -16 -10 -16 -5 0 -10 -7 -10 -15 0 -8
-4 -23 -8 -33 -23 -46 -31 -61 -57 -109 -15 -29 -25 -59 -22 -67 6 -14 309
-16 3090 -16 3309 0 3124 -3 3099 47 -5 10 -14 29 -20 43 -5 14 -33 72 -61
130 -28 58 -51 113 -51 122 0 8 -7 21 -15 28 -8 7 -15 19 -15 28 0 8 -21 58
-46 111 -26 53 -52 110 -59 126 -7 17 -34 75 -60 130 -26 55 -53 114 -60 130
-7 17 -25 56 -39 88 -14 32 -26 62 -26 66 0 5 -4 11 -8 13 -4 2 -21 35 -36 73
-16 39 -48 111 -71 160 -23 50 -50 108 -59 130 -23 53 -64 143 -84 180 -8 17
-19 38 -24 48 -4 9 -12 26 -18 37 -5 11 -10 28 -10 39 0 10 -7 24 -15 31 -8 7
-15 16 -15 21 0 15 -52 124 -61 127 -5 2 -9 12 -9 23 0 11 -4 27 -9 37 -64
126 -111 230 -111 244 0 9 -4 19 -9 23 -5 3 -12 19 -16 35 -4 17 -11 30 -16
30 -5 0 -9 7 -9 15 0 9 -11 33 -25 55 -14 22 -25 44 -25 50 0 6 -4 18 -9 28
-5 9 -13 28 -19 42 -23 56 -78 166 -89 178 -9 9 -262 12 -1201 12 -1076 0
-1190 -2 -1196 -16 -3 -9 -6 -92 -6 -185 l0 -169 28 0 c15 0 338 0 718 0 529
0 695 -3 708 -13 15 -11 12 -16 -24 -55 -22 -23 -40 -45 -40 -50 0 -4 -16 -25
-36 -47 -20 -22 -53 -62 -74 -90 -20 -27 -49 -61 -64 -74 -14 -14 -26 -28 -26
-33 0 -9 -9 -22 -45 -61 -11 -12 -39 -47 -61 -77 -23 -30 -51 -65 -63 -77 -12
-12 -21 -26 -21 -32 0 -5 -3 -11 -7 -13 -5 -1 -28 -28 -53 -58 -24 -30 -48
-56 -52 -58 -5 -2 -8 -9 -8 -15 0 -7 -17 -30 -38 -51 -20 -22 -46 -52 -57 -67
-75 -101 -135 -177 -154 -193 -11 -11 -21 -24 -21 -30 -1 -6 -23 -36 -50 -66
-28 -30 -50 -59 -50 -64 0 -5 -15 -23 -34 -41 -19 -18 -43 -47 -54 -64 -10
-17 -38 -51 -60 -75 -23 -25 -42 -49 -42 -53 0 -5 -15 -25 -34 -45 -19 -20
-42 -48 -51 -62 -23 -34 -55 -33 -130 4 -33 16 -66 30 -73 30 -7 0 -20 4 -30
9 -54 29 -131 61 -145 61 -9 0 -19 5 -22 10 -3 6 -15 10 -26 10 -10 0 -19 4
-19 9 0 5 -13 12 -30 16 -16 4 -32 11 -35 16 -4 5 -14 9 -24 9 -10 0 -40 11
-67 25 -27 14 -54 25 -60 25 -6 0 -42 16 -80 35 -37 19 -76 35 -86 35 -10 0
-36 11 -58 25 -22 14 -46 25 -53 25 -7 0 -22 7 -33 15 -10 8 -26 15 -34 15 -8
0 -37 11 -65 25 -27 13 -56 25 -64 25 -7 0 -32 10 -55 21 -22 12 -53 28 -68
35 -14 8 -31 14 -37 14 -6 0 -45 16 -87 35 -41 19 -79 35 -83 35 -4 0 -31 11
-59 25 -29 14 -61 25 -72 25 -11 0 -20 5 -20 10 0 6 -6 10 -12 10 -7 0 -38 12
-70 28 -72 34 -73 49 -15 163 23 46 49 100 56 119 46 115 70 168 81 175 6 3
10 15 10 26 0 10 5 19 10 19 6 0 10 7 10 15 0 17 16 53 82 190 26 56 48 106
48 111 0 20 31 74 43 75 35 5 63 6 175 7 l122 2 0 169 c0 93 -3 176 -6 185 -5
14 -39 16 -270 16 -260 0 -263 0 -278 -22z m3557 -366 c19 -17 64 -108 88
-177 7 -22 24 -57 36 -77 13 -21 23 -42 23 -46 0 -14 30 -71 41 -77 5 -4 9
-15 9 -26 0 -10 4 -27 9 -37 31 -61 61 -129 61 -140 0 -6 4 -12 8 -12 7 0 18
-22 54 -110 5 -14 16 -38 24 -53 8 -16 14 -35 14 -42 0 -7 3 -15 8 -17 10 -4
62 -110 62 -126 0 -12 3 -21 33 -80 9 -19 17 -38 17 -44 0 -13 -50 -1 -71 18
-8 8 -27 14 -41 14 -14 0 -31 7 -38 15 -7 8 -18 15 -24 15 -7 0 -75 31 -151
70 -77 38 -150 70 -161 70 -12 0 -24 7 -28 15 -3 8 -12 15 -19 15 -8 0 -54 20
-103 45 -49 25 -94 45 -101 45 -6 0 -13 3 -15 8 -5 11 -76 42 -97 42 -10 0
-24 7 -31 15 -7 8 -17 15 -22 15 -6 0 -66 27 -133 60 -67 33 -130 60 -139 60
-9 0 -16 5 -16 10 0 6 -9 10 -19 10 -11 0 -23 5 -26 10 -3 6 -14 10 -23 10 -9
0 -28 9 -42 20 -23 19 -24 21 -7 34 9 7 17 17 17 23 0 5 16 24 35 43 19 19 35
38 35 42 0 8 39 54 88 104 6 7 12 17 12 23 0 6 4 11 9 11 5 0 12 8 15 18 4 9
23 36 44 58 20 23 53 62 72 87 19 25 42 48 50 50 8 2 107 4 220 5 176 0 208
-2 223 -16z m-807 -682 c65 -33 125 -60 132 -60 6 0 12 -4 12 -9 0 -5 14 -13
32 -16 18 -4 39 -11 48 -15 113 -59 330 -160 343 -160 9 0 17 -4 17 -10 0 -5
6 -10 14 -10 7 0 67 -27 134 -60 66 -33 125 -60 131 -60 6 0 11 -4 11 -9 0 -5
12 -12 28 -15 15 -4 45 -15 67 -25 52 -24 206 -100 225 -110 8 -5 35 -17 60
-26 25 -10 73 -31 108 -47 59 -27 65 -33 91 -91 16 -34 37 -83 47 -109 11 -27
22 -48 27 -48 4 0 7 -5 7 -12 0 -18 33 -88 42 -88 4 0 8 -9 8 -19 0 -11 5 -23
10 -26 6 -3 10 -16 10 -29 0 -12 7 -31 15 -42 8 -10 15 -27 15 -36 0 -10 4
-18 8 -18 10 0 38 -78 30 -85 -2 -3 -457 -5 -1009 -5 -717 0 -1015 3 -1039 11
-19 6 -68 26 -107 45 -40 19 -78 34 -85 34 -7 0 -44 16 -83 35 -38 19 -75 35
-82 35 -7 0 -33 11 -59 25 -26 14 -55 25 -66 25 -14 0 -83 36 -106 55 -5 5 30
58 50 76 10 9 18 21 18 28 0 6 5 11 10 11 6 0 14 9 18 19 4 11 26 40 50 65 23
24 42 49 42 53 0 5 23 32 50 62 28 30 50 59 50 65 0 6 22 34 50 61 27 28 50
55 50 61 0 6 16 27 35 47 19 20 35 39 35 42 0 7 13 23 52 65 14 16 40 49 56
73 17 24 38 50 48 58 9 7 35 39 57 69 23 30 49 62 59 71 10 9 18 19 18 23 0 4
5 12 10 19 6 7 19 24 31 40 11 15 28 27 38 27 10 0 71 -27 137 -60z m-2896
-367 c14 -7 30 -13 37 -13 7 0 27 -8 45 -18 18 -10 49 -24 68 -32 19 -7 58
-23 85 -35 28 -12 61 -26 75 -30 42 -12 140 -59 140 -67 0 -5 11 -8 25 -8 14
0 33 -4 43 -10 43 -24 141 -67 180 -79 23 -8 42 -18 42 -23 0 -4 11 -8 24 -8
14 0 54 -15 90 -34 37 -19 91 -42 121 -51 30 -8 55 -20 55 -25 0 -6 9 -10 19
-10 11 0 22 -4 26 -9 3 -5 19 -13 37 -16 17 -4 46 -15 63 -25 17 -10 46 -21
63 -25 18 -3 34 -11 37 -16 4 -5 15 -9 25 -9 10 0 20 -3 22 -7 4 -10 75 -43
92 -43 7 0 44 -16 82 -35 37 -19 78 -35 90 -35 12 0 24 -3 26 -7 4 -10 75 -43
91 -43 12 0 118 -51 127 -61 3 -3 19 -9 35 -13 43 -11 130 -52 145 -71 11 -13
7 -15 -31 -15 -181 0 -2400 -1 -2421 0 -24 0 -28 4 -28 30 0 17 5 30 10 30 6
0 10 6 10 14 0 13 29 75 40 86 11 11 60 116 60 129 0 7 29 72 65 145 36 72 65
135 65 140 0 5 24 59 54 120 30 61 57 122 62 136 19 67 41 76 104 43z"/>
<path d="M3726 1779 l-26 -20 0 -180 0 -179 -72 -1 c-40 -1 -84 -4 -98 -8 -31
-8 -63 -67 -55 -101 11 -46 30 -55 128 -60 l92 -5 0 -210 0 -209 -105 -33
c-115 -37 -140 -56 -140 -110 0 -46 13 -68 49 -83 26 -10 41 -9 102 9 149 46
467 196 493 233 9 12 16 37 16 55 l0 33 80 0 c44 0 80 -3 80 -7 0 -10 -49 -72
-100 -127 -56 -60 -137 -123 -221 -172 -35 -20 -74 -46 -86 -57 -42 -37 -25
-99 33 -123 32 -13 39 -13 79 5 64 28 157 94 250 177 78 69 86 74 129 74 25 0
46 -4 46 -9 0 -17 -87 -126 -136 -171 -63 -59 -122 -99 -211 -144 -40 -20 -77
-45 -83 -55 -16 -32 -12 -68 13 -97 63 -72 224 10 418 214 75 78 169 204 186
247 3 11 21 15 59 15 30 0 54 -2 54 -5 0 -3 -10 -27 -22 -53 -71 -154 -198
-291 -338 -362 -69 -35 -88 -85 -50 -133 33 -41 71 -43 143 -8 34 16 83 46
110 66 46 36 47 37 47 13 0 -84 201 -114 328 -49 59 30 118 103 141 174 28 84
54 260 48 325 -8 75 -35 122 -87 149 -42 22 -51 23 -322 23 -153 0 -278 2
-278 5 0 3 12 23 26 45 l27 40 336 0 c326 0 338 1 359 20 29 27 29 83 2 110
-20 20 -33 20 -569 20 l-550 0 -21 -27 c-14 -18 -20 -37 -17 -56 3 -26 -1 -31
-54 -58 -32 -16 -63 -29 -69 -29 -7 0 -10 55 -8 168 l3 167 82 3 c75 3 84 5
103 29 21 28 26 73 10 103 -14 26 -63 40 -136 40 l-64 0 0 179 0 180 -26 20
c-16 13 -41 21 -64 21 -23 0 -48 -8 -64 -21z m1188 -1115 c36 -35 3 -252 -49
-320 -31 -40 -81 -58 -138 -49 -23 4 -45 9 -49 11 -4 3 17 36 46 74 48 65 146
242 146 266 0 9 20 34 26 34 2 0 10 -7 18 -16z"/>
<path d="M2470 1781 c-68 -11 -119 -40 -148 -84 l-27 -41 -3 -390 c-2 -264 0
-403 8 -429 6 -20 25 -53 41 -72 44 -50 105 -65 256 -65 l123 0 0 -212 c0
-194 2 -215 21 -254 12 -26 36 -53 57 -66 34 -21 49 -23 167 -23 114 0 135 3
170 22 86 46 116 105 123 245 4 93 4 97 -21 122 -20 19 -36 26 -67 26 -53 0
-80 -27 -80 -80 0 -67 -20 -139 -43 -155 -32 -22 -103 -19 -127 5 -18 18 -20
33 -20 158 0 75 3 153 6 174 6 33 10 37 53 48 62 15 113 52 142 103 l24 42 0
390 c0 382 0 391 -22 431 -22 41 -52 67 -108 93 -34 16 -444 25 -525 12z m427
-162 c37 -14 43 -25 43 -86 l0 -53 -235 0 -235 0 0 48 c1 52 14 76 51 91 33
13 341 14 376 0z m53 -369 l0 -70 -240 0 -240 0 0 70 0 70 240 0 240 0 0 -70z
m-10 -295 c0 -92 -13 -99 -188 -104 -249 -6 -282 7 -282 109 l0 60 235 0 235
0 0 -65z"/>
<path d="M4410 1781 c-115 -7 -150 -19 -193 -71 -36 -42 -42 -80 -42 -275 0
-199 9 -231 79 -268 39 -21 52 -22 311 -22 269 0 270 0 315 25 76 42 85 73 84
280 -1 207 -13 249 -84 296 -59 39 -196 49 -470 35z m354 -160 c12 -10 16 -26
14 -50 l-3 -36 -212 -3 -213 -2 0 40 c0 63 26 71 231 68 125 -2 170 -6 183
-17z m26 -264 c0 -22 -8 -41 -21 -53 -19 -17 -38 -19 -206 -19 -182 0 -185 0
-204 24 -10 13 -19 36 -19 52 l0 29 225 0 225 0 0 -33z"/>
<path d="M1594 1716 c-36 -16 -44 -32 -44 -86 0 -56 17 -64 139 -70 l106 -5 0
-145 0 -145 -93 -5 c-83 -4 -96 -8 -113 -29 -29 -36 -25 -94 7 -120 23 -18 41
-21 115 -21 l89 0 0 -195 c0 -226 19 -195 -148 -245 -120 -36 -142 -53 -142
-110 0 -53 34 -90 84 -90 43 0 175 43 371 122 253 102 275 116 275 178 0 75
-72 91 -183 40 -37 -16 -71 -30 -77 -30 -6 0 -10 59 -10 165 l0 165 80 0 c73
0 83 3 105 25 34 33 34 93 2 123 -20 19 -35 22 -105 22 l-83 0 3 148 3 147 95
3 c80 2 98 6 117 24 29 27 31 86 4 119 l-19 24 -274 2 c-215 2 -280 0 -304
-11z"/>
<path d="M2497 669 c-10 -6 -34 -43 -52 -83 -44 -91 -89 -144 -168 -196 -65
-42 -207 -94 -292 -105 -73 -10 -104 -24 -121 -57 -20 -38 -10 -82 24 -109 24
-19 36 -21 98 -16 100 7 213 40 324 95 129 63 238 169 298 291 23 46 42 94 42
108 0 39 -51 83 -97 83 -21 0 -46 -5 -56 -11z"/>
</g>
</svg>
